<svg width="1280" height="250" viewBox="0 0 1280 250" fill="none" xmlns="http://www.w3.org/2000/svg">
<path d="M1177.1 13.4316H101.24V147.811H1177.1V13.4316Z" fill="#C93535"/>
<path fill-rule="evenodd" clip-rule="evenodd" d="M179.563 57.8275H200.721V43.7086H144.285V57.8275H165.492V114.263H179.564V57.8275H179.563ZM221.484 86.0695V71.9489C221.474 70.0636 221.851 68.1963 222.591 66.4626C224.021 63.0662 226.723 60.3642 230.119 58.9349C231.856 58.2042 233.721 57.8278 235.605 57.8278C237.49 57.8278 239.355 58.2042 241.092 58.9349C244.488 60.3642 247.19 63.0662 248.619 66.4626C249.36 68.1963 249.737 70.0636 249.727 71.9489V86.0695H221.484ZM263.848 71.9489C263.873 68.1701 263.119 64.4267 261.633 60.9522C258.765 54.1802 253.374 48.7896 246.602 45.9209C243.12 44.4595 239.382 43.7068 235.605 43.7068C231.829 43.7068 228.091 44.4595 224.609 45.9209C221.26 47.3426 218.218 49.3988 215.65 51.9762C213.091 54.5608 211.045 57.6079 209.623 60.9556C208.14 64.4296 207.389 68.1718 207.416 71.9489V114.263H221.484V100.142H249.727V114.263H263.848V71.9489ZM346.115 63.8795C346.132 61.0489 345.572 58.2445 344.466 55.6385C342.332 50.5521 338.286 46.5067 333.199 44.3722C329.507 42.7972 325.438 42.3195 321.481 42.9962C317.524 43.6729 313.845 45.4753 310.886 48.1879C308.98 46.433 306.76 45.0539 304.342 44.1233C299.232 42.1729 293.569 42.262 288.523 44.3722C283.438 46.5071 279.394 50.5521 277.259 55.6376C276.154 58.2437 275.593 61.0481 275.611 63.8787V114.263H289.733V63.8795C289.733 62.0135 290.474 60.2239 291.793 58.9045C293.113 57.585 294.902 56.8437 296.768 56.8437C298.634 56.8437 300.424 57.585 301.744 58.9045C303.063 60.2239 303.804 62.0135 303.804 63.8795V114.263H317.922V63.8795C317.923 62.4869 318.338 61.1261 319.112 59.9684C319.885 58.8106 320.985 57.9079 322.271 57.3738C323.557 56.8398 324.972 56.6983 326.339 56.9673C327.705 57.2362 328.962 57.9035 329.949 58.8851C330.593 59.5304 331.11 60.2899 331.475 61.1248C331.855 61.9933 332.048 62.9323 332.04 63.8804V114.264H346.112V63.8795H346.115ZM386.953 57.8242C388.831 57.8125 390.69 58.1895 392.415 58.9316C395.799 60.3714 398.49 63.071 399.918 66.4593C400.649 68.196 401.025 70.0611 401.025 71.9452C401.025 73.8292 400.649 75.6943 399.918 77.4311C398.49 80.8197 395.799 83.5196 392.415 84.9596C390.69 85.701 388.831 86.0778 386.953 86.0662H372.832V57.8275H386.953V57.8242ZM372.832 100.139H386.953C390.717 100.161 394.444 99.4069 397.903 97.9247C404.675 95.0558 410.066 89.6649 412.934 82.8925C415.393 77.0598 415.817 70.5693 414.139 64.466C412.153 57.367 407.499 51.3111 401.15 47.5649C399.044 46.3257 396.786 45.3665 394.431 44.7115C391.996 44.0339 389.48 43.6945 386.953 43.7028H358.711V114.26H372.832V100.142V100.139ZM471.779 100.139H437.534V86.0695H460.708V71.9489H437.534V57.8275H471.777V43.7086H423.412V114.266H471.777V100.142L471.779 100.139ZM509.911 57.8242C511.788 57.8125 513.648 58.1895 515.372 58.9316C518.756 60.3714 521.447 63.071 522.876 66.4593C523.607 68.1959 523.983 70.061 523.983 71.9452C523.983 73.8293 523.607 75.6945 522.876 77.4311C521.447 80.8197 518.756 83.5196 515.372 84.9596C513.648 85.7011 511.788 86.0778 509.911 86.0662H495.79V57.8275H509.911V57.8242ZM495.79 100.139L511.584 100.04L517.734 114.26H532.746L524.922 95.8087C526.944 94.5393 528.795 93.0183 530.433 91.2821C532.057 89.5651 533.454 87.6468 534.59 85.5743C535.722 83.507 536.598 81.3095 537.198 79.0304C538.444 74.2511 538.41 69.228 537.1 64.466C535.113 57.367 530.459 51.3111 524.11 47.5649C522.004 46.3257 519.746 45.3665 517.391 44.7115C514.957 44.0339 512.44 43.6945 509.913 43.7028H481.669V114.26H495.79V100.142V100.139ZM595.721 100.139H561.475V86.0695H584.65V71.9489H561.475V57.8275H595.721V43.7086H547.355V114.266H595.721V100.142V100.139ZM689.944 79.2767H676.315V99.3506C674.793 100.111 673.192 100.704 671.542 101.122C669.854 101.55 668.118 101.765 666.376 101.761C663.39 101.781 660.432 101.178 657.691 99.9902C652.327 97.6844 648.055 93.4033 645.76 88.0338C644.571 85.2683 643.968 82.2862 643.989 79.2759C643.969 76.2896 644.572 73.332 645.76 70.5919C646.901 67.9442 648.538 65.5392 650.582 63.5063C652.632 61.4781 655.043 59.8511 657.691 58.7093C660.458 57.5281 663.437 56.9254 666.445 56.9381C669.453 56.9508 672.427 57.5787 675.183 58.7831C677.946 59.995 680.451 61.7234 682.566 63.8754L689.948 51.5747C683.373 45.9741 675.015 42.9047 666.378 42.9189C663.111 42.9085 659.857 43.3473 656.709 44.2229C650.639 45.9047 645.106 49.1247 640.644 53.5713C638.426 55.7706 636.507 58.2529 634.937 60.9539C633.353 63.6818 632.121 66.5998 631.272 69.6379C630.393 72.7762 629.953 76.021 629.963 79.28C629.953 82.5553 630.392 85.8165 631.267 88.9728C632.112 92.03 633.347 94.9661 634.94 97.709C636.509 100.41 638.428 102.892 640.647 105.092C642.861 107.293 645.341 109.21 648.029 110.799C650.75 112.404 653.67 113.644 656.713 114.489C659.86 115.364 663.112 115.803 666.378 115.792C675.014 115.805 683.372 112.734 689.946 107.133V79.28L689.944 79.2767ZM714.102 86.0662V71.9489C714.092 70.0636 714.469 68.1963 715.21 66.4626C716.639 63.0662 719.341 60.3642 722.738 58.9349C724.474 58.2042 726.34 57.8278 728.224 57.8278C730.108 57.8278 731.973 58.2042 733.71 58.9349C737.107 60.3642 739.809 63.0662 741.238 66.4626C741.979 68.1963 742.355 70.0636 742.345 71.9489V86.0695H714.102V86.0662ZM756.467 71.9456C756.492 68.1668 755.738 64.4234 754.252 60.9489C751.384 54.1764 745.993 48.7857 739.221 45.9175C735.739 44.4561 732 43.7034 728.224 43.7034C724.448 43.7034 720.709 44.4561 717.227 45.9175C713.879 47.3396 710.836 49.3958 708.269 51.9729C705.709 54.5577 703.664 57.6047 702.241 60.9522C700.756 64.4269 700.003 68.1702 700.028 71.9489V114.263H714.099V100.142H742.342V114.263H756.463V71.9489L756.467 71.9456ZM838.733 63.8762C838.751 61.0456 838.19 58.2412 837.085 55.6351C834.949 50.55 830.904 46.5059 825.818 44.3722C822.125 42.7972 818.057 42.3195 814.1 42.9962C810.142 43.6729 806.464 45.4753 803.504 48.1879C801.598 46.433 799.378 45.0539 796.96 44.1233C791.851 42.1729 786.187 42.262 781.142 44.3722C776.055 46.5066 772.009 50.5524 769.874 55.6393C768.769 58.2453 768.208 61.0497 768.226 63.8804V114.264H782.347V63.8795C782.347 62.9556 782.529 62.0407 782.883 61.187C783.236 60.3334 783.755 59.5578 784.408 58.9045C785.061 58.2511 785.837 57.7329 786.69 57.3793C787.544 57.0257 788.459 56.8437 789.383 56.8437C790.307 56.8437 791.222 57.0257 792.075 57.3793C792.929 57.7329 793.705 58.2511 794.358 58.9045C795.011 59.5578 795.53 60.3334 795.883 61.187C796.237 62.0407 796.419 62.9556 796.419 63.8795V114.263H810.54V63.8795C810.542 62.4862 810.956 61.1245 811.73 59.9663C812.505 58.808 813.605 57.905 814.892 57.3712C816.179 56.8373 817.595 56.6965 818.962 56.9666C820.329 57.2366 821.586 57.9053 822.573 58.8884C823.216 59.5337 823.733 60.2932 824.098 61.1281C824.478 61.9967 824.671 62.9356 824.664 63.8837V114.268H838.736V63.8795L838.733 63.8762ZM899.696 100.139H865.451V86.0695H888.625V71.9489H865.451V57.8275H899.696V43.7086H851.329V114.266H899.696V100.142V100.139ZM951.9 86.0662H980.095V114.26H994.213V43.7086H980.095V71.9489H951.9V43.7086H937.782V114.266H951.9V86.0695V86.0662ZM1062.95 43.7086H1048.83V86.072C1048.84 87.9491 1048.47 89.8087 1047.72 91.5334C1047.01 93.2052 1045.98 94.7253 1044.7 96.0127C1043.4 97.302 1041.87 98.3295 1040.19 99.0387C1038.46 99.7696 1036.59 100.146 1034.71 100.146C1032.83 100.146 1030.96 99.7696 1029.23 99.0387C1027.54 98.3295 1026.01 97.302 1024.72 96.0127C1023.44 94.7253 1022.41 93.2052 1021.69 91.5334C1020.95 89.8087 1020.58 87.9491 1020.59 86.072V43.7086H1006.51V86.072C1006.49 89.8511 1007.24 93.5948 1008.73 97.0695C1011.58 103.822 1016.96 109.196 1023.71 112.051C1027.19 113.513 1030.93 114.266 1034.71 114.266C1038.49 114.266 1042.23 113.513 1045.71 112.051C1049.06 110.629 1052.1 108.584 1054.68 106.024C1057.26 103.457 1059.32 100.415 1060.74 97.0653C1062.23 93.5907 1062.98 89.8469 1062.95 86.0678V43.7086ZM1131.12 89.0491C1130.78 87.6594 1130.27 86.314 1129.62 85.0393C1128.98 83.7762 1128.18 82.5951 1127.26 81.5214C1126.39 80.4944 1125.34 79.6355 1124.16 78.9872C1125.3 78.2763 1126.33 77.3971 1127.21 76.3793C1128.14 75.3171 1128.93 74.1438 1129.57 72.8863C1130.22 71.6176 1130.73 70.2827 1131.1 68.9047C1131.45 67.588 1131.63 66.2323 1131.64 64.87C1131.66 62.0451 1131.09 59.2469 1129.97 56.6529C1127.79 51.5922 1123.76 47.5594 1118.7 45.3858C1116.1 44.2632 1113.31 43.6934 1110.48 43.7127H1075.21V114.27H1110.48C1113.31 114.29 1116.1 113.72 1118.7 112.597C1123.76 110.423 1127.79 106.39 1129.97 101.329C1131.09 98.7353 1131.66 95.9374 1131.64 93.1128C1131.63 91.7417 1131.46 90.3765 1131.12 89.0466V89.0491ZM1089.32 86.072H1110.48C1111.88 86.0721 1113.24 86.4851 1114.4 87.2588C1115.56 88.0326 1116.46 89.1323 1117 90.4192C1117.53 91.7061 1117.67 93.1225 1117.4 94.4895C1117.13 95.8564 1116.46 97.1127 1115.48 98.0997C1114.82 98.7539 1114.04 99.2713 1113.19 99.6219C1112.33 99.9725 1111.41 100.149 1110.48 100.142H1089.32V86.0695V86.072ZM1089.32 57.83H1110.48C1111.41 57.8211 1112.33 57.9969 1113.19 58.3471C1114.04 58.6972 1114.82 59.2147 1115.48 59.8693C1116.13 60.5239 1116.65 61.3025 1117 62.1596C1117.35 63.0166 1117.53 63.9349 1117.52 64.8608C1117.52 65.8138 1117.34 66.7584 1116.98 67.6405C1116.45 68.9244 1115.55 70.0205 1114.39 70.7877C1113.23 71.5549 1111.87 71.9582 1110.48 71.9456H1089.32V57.8275V57.83Z" fill="white"/>
<path fill-rule="evenodd" clip-rule="evenodd" d="M349.688 178.46H341.347V208.322C341.351 208.888 341.238 209.449 341.015 209.969C340.801 210.469 340.495 210.924 340.111 211.31C339.628 211.799 339.031 212.16 338.374 212.362C337.717 212.564 337.021 212.6 336.346 212.468C335.672 212.335 335.041 212.037 334.51 211.601C333.979 211.165 333.563 210.604 333.302 209.969C333.086 209.447 332.977 208.887 332.981 208.322V178.46H324.609V208.322C324.612 208.887 324.503 209.446 324.287 209.969C323.973 210.731 323.44 211.384 322.754 211.842C322.069 212.301 321.263 212.546 320.438 212.546C319.613 212.546 318.807 212.301 318.122 211.842C317.437 211.384 316.903 210.731 316.589 209.969C316.373 209.447 316.264 208.887 316.268 208.322V178.46H307.898V208.322C307.887 209.999 308.22 211.661 308.875 213.206C310.14 216.221 312.538 218.619 315.554 219.884C317.098 220.539 318.76 220.872 320.438 220.861C321.972 220.865 323.494 220.588 324.929 220.044C326.363 219.503 327.68 218.691 328.807 217.653C329.931 218.689 331.242 219.5 332.67 220.044C334.101 220.589 335.619 220.866 337.15 220.861C338.827 220.871 340.489 220.539 342.034 219.884C345.049 218.619 347.447 216.221 348.712 213.206C349.367 211.661 349.7 209.999 349.689 208.322V178.46H349.688ZM400.144 178.46H391.804V208.322C391.807 208.888 391.692 209.449 391.468 209.969C391.254 210.469 390.948 210.925 390.564 211.31C390.08 211.799 389.484 212.16 388.827 212.361C388.17 212.563 387.473 212.599 386.799 212.466C386.125 212.333 385.494 212.036 384.963 211.6C384.432 211.164 384.017 210.604 383.754 209.969C383.539 209.447 383.43 208.887 383.434 208.322V178.46H375.065V208.322C375.068 208.887 374.959 209.447 374.743 209.969C374.429 210.731 373.896 211.384 373.21 211.842C372.525 212.301 371.719 212.546 370.894 212.546C370.069 212.546 369.263 212.301 368.578 211.842C367.893 211.384 367.359 210.731 367.045 209.969C366.829 209.447 366.72 208.887 366.724 208.322V178.46H358.354V208.322C358.344 209.999 358.676 211.661 359.331 213.206C360.596 216.221 362.994 218.619 366.01 219.884C367.554 220.539 369.217 220.872 370.895 220.861C372.429 220.865 373.951 220.588 375.386 220.044C376.819 219.503 378.136 218.691 379.263 217.653C380.388 218.689 381.699 219.501 383.128 220.044C384.558 220.589 386.077 220.866 387.607 220.861C389.285 220.872 390.948 220.539 392.492 219.884C395.507 218.619 397.905 216.221 399.171 213.206C399.825 211.661 400.157 209.999 400.147 208.322V178.46H400.144ZM450.6 178.46H442.26V208.322C442.264 208.888 442.151 209.449 441.928 209.969C441.714 210.469 441.407 210.924 441.024 211.31C440.237 212.091 439.173 212.53 438.064 212.53C436.955 212.53 435.891 212.091 435.104 211.31C434.721 210.927 434.419 210.471 434.214 209.969C433.999 209.447 433.89 208.887 433.893 208.322V178.46H425.524V208.322C425.527 208.886 425.418 209.446 425.204 209.969C424.889 210.731 424.355 211.383 423.67 211.841C422.985 212.3 422.178 212.544 421.354 212.544C420.529 212.544 419.723 212.3 419.038 211.841C418.353 211.383 417.819 210.731 417.504 209.969C417.289 209.447 417.18 208.887 417.184 208.322V178.46H408.814V208.322C408.804 209.999 409.136 211.661 409.791 213.206C411.056 216.221 413.454 218.619 416.469 219.884C418.014 220.539 419.676 220.872 421.354 220.861C422.888 220.865 424.41 220.588 425.845 220.044C427.278 219.503 428.594 218.692 429.722 217.654C430.846 218.69 432.157 219.502 433.586 220.045C435.016 220.59 436.534 220.867 438.065 220.862C439.743 220.872 441.405 220.54 442.95 219.885C445.965 218.62 448.364 216.222 449.628 213.207C450.283 211.662 450.616 210 450.605 208.322V178.46L450.6 178.46ZM468.133 215.378C467.889 214.789 467.532 214.254 467.083 213.802C466.629 213.351 466.094 212.99 465.507 212.738C464.891 212.478 464.229 212.344 463.56 212.344C462.892 212.344 462.23 212.478 461.614 212.738C461.017 212.989 460.474 213.35 460.01 213.802C459.552 214.252 459.185 214.788 458.932 215.378C458.668 215.986 458.534 216.641 458.538 217.303C458.534 217.965 458.662 218.62 458.915 219.231C459.168 219.842 459.541 220.396 460.011 220.861C460.474 221.313 461.018 221.674 461.615 221.925C462.231 222.185 462.892 222.319 463.561 222.319C464.23 222.319 464.891 222.185 465.507 221.925C466.095 221.673 466.63 221.312 467.083 220.861C467.535 220.406 467.892 219.866 468.134 219.272C468.388 218.647 468.517 217.978 468.513 217.303C468.516 216.643 468.387 215.988 468.133 215.378ZM494.326 186.828H506.865V178.46H473.417V186.828H485.985V220.278H494.326V186.828ZM520.665 203.568V195.198C520.659 194.081 520.883 192.974 521.321 191.946C522.168 189.933 523.77 188.332 525.783 187.485C526.812 187.051 527.918 186.828 529.035 186.828C530.151 186.828 531.257 187.051 532.286 187.485C534.299 188.332 535.901 189.933 536.748 191.946C537.187 192.974 537.41 194.081 537.404 195.198V203.568H520.665ZM545.774 195.198C545.789 192.959 545.342 190.74 544.462 188.681C542.761 184.667 539.566 181.472 535.552 179.772C533.488 178.905 531.273 178.459 529.034 178.459C526.796 178.459 524.58 178.905 522.516 179.772C520.532 180.614 518.729 181.832 517.208 183.359C515.69 184.89 514.478 186.696 513.635 188.681C512.755 190.74 512.308 192.959 512.323 195.198V220.278H520.663V211.908H537.403V220.278H545.772V195.198H545.774ZM596.026 190.416C596.036 188.738 595.704 187.076 595.049 185.531C593.784 182.516 591.385 180.118 588.37 178.853C586.182 177.919 583.771 177.635 581.425 178.036C579.08 178.437 576.9 179.505 575.146 181.113C574.016 180.074 572.7 179.258 571.267 178.708C568.24 177.552 564.884 177.604 561.894 178.854C558.879 180.119 556.481 182.517 555.216 185.532C554.561 187.077 554.228 188.739 554.239 190.417V220.279H562.608V190.417C562.608 189.311 563.047 188.25 563.829 187.468C564.611 186.686 565.672 186.247 566.778 186.247C567.884 186.247 568.944 186.686 569.726 187.468C570.508 188.25 570.948 189.311 570.948 190.417V220.279H579.317V190.417C579.317 189.59 579.563 188.783 580.021 188.095C580.48 187.408 581.133 186.872 581.896 186.556C582.659 186.239 583.499 186.155 584.31 186.316C585.121 186.476 585.866 186.873 586.451 187.456C586.832 187.839 587.139 188.289 587.355 188.784C587.579 189.299 587.692 189.855 587.687 190.417V220.279H596.028V190.417L596.026 190.416ZM621.723 186.828C622.835 186.822 623.936 187.045 624.958 187.485C626.963 188.339 628.558 189.939 629.405 191.946C629.838 192.976 630.061 194.081 630.061 195.198C630.061 196.315 629.838 197.42 629.405 198.45C628.558 200.458 626.964 202.058 624.958 202.912C623.936 203.351 622.835 203.574 621.723 203.568H613.354V186.828H621.723ZM613.354 211.908H621.723C623.953 211.921 626.162 211.474 628.212 210.596C632.226 208.896 635.421 205.701 637.121 201.687C638.578 198.23 638.83 194.383 637.835 190.766C636.659 186.558 633.9 182.968 630.137 180.748C628.889 180.014 627.55 179.445 626.155 179.057C624.712 178.655 623.22 178.454 621.722 178.46H604.984V220.278H613.354V211.908ZM673.493 211.908H653.195V203.568H666.931V195.198H653.195V186.828H673.492V178.46H644.825V220.278H673.492V211.908H673.493ZM697.587 186.828C698.699 186.822 699.8 187.045 700.822 187.485C702.827 188.338 704.422 189.938 705.269 191.946C705.702 192.976 705.926 194.081 705.926 195.198C705.926 196.315 705.702 197.42 705.269 198.45C704.423 200.458 702.828 202.059 700.822 202.912C699.8 203.351 698.699 203.574 697.587 203.568H689.217V186.828H697.587ZM689.217 211.908L698.578 211.849L702.224 220.278H711.117L706.481 209.342C707.679 208.59 708.777 207.688 709.747 206.659C710.71 205.642 711.538 204.505 712.212 203.277C712.882 202.051 713.401 200.749 713.757 199.398C714.496 196.565 714.476 193.588 713.699 190.766C712.522 186.558 709.764 182.968 706 180.748C704.752 180.014 703.414 179.445 702.019 179.057C700.575 178.655 699.084 178.455 697.586 178.46H680.846V220.278H689.216V211.908H689.217ZM749.936 211.908H729.641V203.568H743.376V195.198H729.641V186.828H749.937V178.46H721.271V220.278H749.937V211.908H749.936ZM765.863 215.378C765.619 214.789 765.262 214.254 764.813 213.802C764.359 213.351 763.824 212.99 763.237 212.738C762.62 212.478 761.958 212.344 761.29 212.344C760.621 212.344 759.959 212.478 759.343 212.738C758.747 212.989 758.203 213.35 757.739 213.802C757.281 214.252 756.914 214.788 756.661 215.378C756.398 215.986 756.264 216.641 756.267 217.303C756.263 217.98 756.397 218.649 756.661 219.272C756.912 219.868 757.279 220.408 757.739 220.861C758.203 221.313 758.747 221.674 759.343 221.925C759.959 222.185 760.621 222.319 761.29 222.319C761.958 222.319 762.62 222.185 763.237 221.925C763.824 221.673 764.359 221.312 764.813 220.861C765.265 220.406 765.621 219.866 765.863 219.272C766.117 218.647 766.246 217.978 766.242 217.303C766.246 216.643 766.119 215.988 765.866 215.378H765.863ZM807.774 199.544H799.696V211.441C798.794 211.892 797.846 212.244 796.868 212.491C795.867 212.746 794.838 212.873 793.805 212.871C792.035 212.882 790.282 212.525 788.658 211.82C785.478 210.454 782.946 207.917 781.587 204.734C780.882 203.095 780.524 201.328 780.537 199.544C780.525 197.773 780.883 196.02 781.587 194.396C782.263 192.827 783.233 191.402 784.444 190.197C785.66 188.995 787.089 188.031 788.658 187.353C790.298 186.653 792.064 186.296 793.847 186.304C795.63 186.311 797.393 186.684 799.027 187.397C800.664 188.116 802.149 189.141 803.402 190.416L807.776 183.126C803.879 179.806 798.926 177.985 793.807 177.993C791.871 177.986 789.942 178.247 788.077 178.766C784.48 179.763 781.201 181.672 778.557 184.308C777.242 185.612 776.105 187.082 775.175 188.683C774.236 190.3 773.506 192.029 773.002 193.83C772.482 195.691 772.222 197.614 772.229 199.546C772.223 201.487 772.483 203.42 773.002 205.291C773.502 207.102 774.232 208.842 775.175 210.467C776.105 212.068 777.243 213.538 778.557 214.841C779.869 216.146 781.338 217.283 782.931 218.224C784.544 219.175 786.275 219.911 788.078 220.412C789.944 220.93 791.872 221.19 793.809 221.184C798.928 221.192 803.881 219.372 807.777 216.052V199.545L807.774 199.544ZM823.586 203.568V195.198C823.58 194.081 823.804 192.974 824.242 191.946C825.091 189.932 826.696 188.33 828.711 187.485C829.741 187.051 830.846 186.828 831.963 186.828C833.08 186.828 834.185 187.051 835.215 187.485C837.228 188.332 838.829 189.933 839.677 191.946C840.115 192.974 840.339 194.081 840.333 195.198V203.568H823.594H823.586ZM848.695 195.198C848.71 192.959 848.263 190.74 847.383 188.681C845.682 184.667 842.487 181.472 838.473 179.772C836.409 178.905 834.193 178.459 831.955 178.459C829.717 178.459 827.501 178.905 825.437 179.772C823.453 180.614 821.65 181.832 820.129 183.359C818.611 184.89 817.399 186.696 816.556 188.681C815.676 190.74 815.229 192.959 815.244 195.198V220.278H823.584V211.908H840.324V220.278H848.702V195.198H848.695ZM898.947 190.416C898.957 188.738 898.625 187.076 897.97 185.531C896.705 182.516 894.306 180.118 891.291 178.853C889.103 177.919 886.692 177.635 884.346 178.036C882.001 178.437 879.821 179.505 878.067 181.113C876.937 180.074 875.621 179.258 874.188 178.708C871.161 177.552 867.805 177.604 864.815 178.854C861.8 180.119 859.402 182.517 858.137 185.532C857.482 187.077 857.149 188.739 857.16 190.417V220.279H865.53V190.417C865.522 189.864 865.624 189.316 865.83 188.803C866.036 188.29 866.342 187.823 866.73 187.43C867.118 187.036 867.581 186.724 868.09 186.51C868.6 186.297 869.147 186.187 869.7 186.187C870.253 186.187 870.8 186.297 871.31 186.51C871.819 186.724 872.282 187.036 872.67 187.43C873.058 187.823 873.364 188.29 873.57 188.803C873.776 189.316 873.878 189.864 873.87 190.417V220.279H882.239V190.417C882.239 189.59 882.484 188.783 882.943 188.095C883.402 187.408 884.055 186.872 884.818 186.556C885.581 186.239 886.421 186.155 887.232 186.316C888.043 186.476 888.788 186.873 889.373 187.456C889.754 187.839 890.06 188.289 890.277 188.784C890.501 189.299 890.614 189.855 890.609 190.417V220.279H898.949V190.417L898.947 190.416ZM936.568 211.908H916.279V203.568H930.01V195.198H916.279V186.828H936.571V178.46H907.909V220.278H936.571V211.908H936.568ZM942.466 195.883C943.103 197.374 944.018 198.73 945.162 199.879C946.309 201.018 947.66 201.933 949.143 202.576C950.68 203.241 952.338 203.579 954.013 203.568H962.382C962.943 203.563 963.499 203.672 964.016 203.889C964.513 204.095 964.964 204.397 965.343 204.778C965.725 205.158 966.03 205.609 966.239 206.105C966.66 207.153 966.66 208.323 966.239 209.371C966.03 209.867 965.726 210.318 965.343 210.698C964.964 211.079 964.513 211.381 964.016 211.587C963.499 211.804 962.943 211.913 962.382 211.908H943.81V220.278H962.382C964.062 220.288 965.726 219.949 967.268 219.283C968.76 218.646 970.117 217.73 971.266 216.585C972.407 215.443 973.317 214.091 973.945 212.603C974.591 211.059 974.924 209.401 974.924 207.726C974.924 206.051 974.591 204.393 973.945 202.849C972.684 199.831 970.285 197.432 967.268 196.17C965.723 195.515 964.06 195.182 962.382 195.193H954.013C953.454 195.198 952.901 195.089 952.387 194.873C951.38 194.452 950.581 193.65 950.164 192.642C949.953 192.118 949.846 191.558 949.848 190.994C949.845 190.434 949.952 189.879 950.164 189.361C950.373 188.864 950.677 188.414 951.059 188.034C951.439 187.653 951.89 187.35 952.387 187.144C952.901 186.929 953.454 186.82 954.013 186.823H973.207V178.46H954.013C952.338 178.449 950.68 178.786 949.143 179.451C946.143 180.738 943.753 183.129 942.466 186.129C941.815 187.673 941.48 189.331 941.48 191.007C941.481 192.682 941.817 194.34 942.469 195.883H942.466Z" fill="#FFFDF3"/>
</svg>
