<svg width="300" height="300" viewBox="0 0 300 300" fill="none" xmlns="http://www.w3.org/2000/svg">
<path d="M41.931 63.2105C41.9701 63.2515 42.018 63.2831 42.0711 63.3028C42.1242 63.3226 42.1811 63.3301 42.2375 63.3246C42.2939 63.3192 42.3483 63.301 42.3967 63.2715C42.445 63.2419 42.486 63.2017 42.5166 63.154L45.0777 60.2048C45.2118 60.0566 45.3317 60.0425 45.4658 60.1554L57.5095 70.647C57.5463 70.6885 57.5921 70.7211 57.6435 70.742C57.6949 70.7629 57.7504 70.7717 57.8058 70.7676C57.8611 70.7635 57.9147 70.7466 57.9625 70.7184C58.0102 70.6901 58.0508 70.6512 58.081 70.6046L58.9277 69.631C58.9715 69.5981 59.007 69.5555 59.0315 69.5065C59.056 69.4575 59.0688 69.4035 59.0688 69.3487C59.0688 69.294 59.056 69.24 59.0315 69.191C59.007 69.142 58.9715 69.0994 58.9277 69.0665L46.8416 58.5609C46.7075 58.448 46.7075 58.321 46.8416 58.1728L49.3886 55.2448C49.434 55.2099 49.4708 55.165 49.4961 55.1136C49.5213 55.0622 49.5345 55.0057 49.5345 54.9485C49.5345 54.8912 49.5213 54.8347 49.4961 54.7833C49.4708 54.7319 49.434 54.6871 49.3886 54.6521L48.6125 53.9466C48.5735 53.9042 48.5251 53.8715 48.4713 53.8509C48.4174 53.8303 48.3596 53.8224 48.3022 53.8279C48.2448 53.8333 48.1895 53.852 48.1405 53.8824C48.0915 53.9127 48.0502 53.954 48.0199 54.003L41.1266 61.9405C41.08 61.9745 41.042 62.0191 41.0159 62.0706C40.9897 62.1221 40.9761 62.179 40.9761 62.2368C40.9761 62.2946 40.9897 62.3515 41.0159 62.403C41.042 62.4545 41.08 62.4991 41.1266 62.5331L41.931 63.2105Z" fill="#FFD501"/>
<path d="M66.1947 61.3399C66.2249 61.3864 66.2655 61.4253 66.3132 61.4536C66.361 61.4819 66.4146 61.4987 66.47 61.5028C66.5253 61.5069 66.5808 61.4981 66.6322 61.4772C66.6836 61.4563 66.7295 61.4238 66.7662 61.3822L67.7328 60.5355C67.7766 60.5027 67.8122 60.4601 67.8367 60.4111C67.8612 60.3621 67.8739 60.3081 67.8739 60.2533C67.8739 60.1986 67.8612 60.1445 67.8367 60.0956C67.8122 60.0466 67.7766 60.004 67.7328 59.9711L63.3514 54.9052C63.3259 54.8786 63.3068 54.8466 63.2953 54.8116C63.2838 54.7766 63.2803 54.7395 63.2851 54.703C63.2898 54.6664 63.3026 54.6314 63.3227 54.6005C63.3427 54.5696 63.3694 54.5435 63.4007 54.5242L66.3217 52.0407L73.3067 55.1945C73.4385 55.2413 73.5806 55.2509 73.7175 55.2223C73.8544 55.1937 73.9808 55.1279 74.0828 55.0322L75.0564 54.1926C75.3316 53.9528 75.3104 53.7693 74.9788 53.6564L67.9233 50.552L67.8528 50.4673C68.3694 49.7547 68.6191 48.8831 68.5583 48.005C68.4599 47.061 68.0532 46.1758 67.4012 45.4862L65.6938 43.5106C65.3462 43.0577 64.9097 42.6807 64.411 42.4029C63.9123 42.125 63.362 41.9521 62.794 41.8949C62.222 41.8761 61.6521 41.9719 61.1177 42.1766C60.5834 42.3814 60.0954 42.691 59.6825 43.0873L54.6731 47.4123C54.6293 47.4452 54.5937 47.4878 54.5692 47.5368C54.5447 47.5857 54.532 47.6398 54.532 47.6945C54.532 47.7493 54.5447 47.8033 54.5692 47.8523C54.5937 47.9013 54.6293 47.9439 54.6731 47.9767L66.1947 61.3399ZM57.3824 47.504L60.6562 44.6818C61.9073 43.6 63.0833 43.6894 64.1839 44.9499L65.8561 46.8902C66.9379 48.132 66.8556 49.2938 65.6091 50.3756L62.3283 53.1978C62.1801 53.3248 62.0531 53.3248 61.9403 53.1978L57.3542 47.8921C57.2201 47.758 57.2342 47.631 57.3824 47.504Z" fill="#FFD501"/>
<path d="M81.0326 49.501C81.0577 49.5503 81.0937 49.5933 81.1379 49.6268C81.182 49.6602 81.2332 49.6832 81.2875 49.6941C81.3418 49.705 81.3978 49.7034 81.4514 49.6895C81.5051 49.6756 81.5548 49.6498 81.597 49.6139L82.6624 48.9083C82.7127 48.8851 82.7567 48.8503 82.791 48.8069C82.8254 48.7634 82.849 48.7125 82.86 48.6582C82.871 48.604 82.869 48.5479 82.8543 48.4945C82.8396 48.4411 82.8125 48.3919 82.7753 48.351L72.8976 33.6967C72.8735 33.6463 72.838 33.6022 72.7939 33.568C72.7498 33.5337 72.6983 33.5101 72.6436 33.4992C72.5888 33.4882 72.5322 33.4902 72.4784 33.5049C72.4245 33.5195 72.3748 33.5466 72.3331 33.5838L71.2607 34.2893C71.211 34.3133 71.1676 34.3486 71.134 34.3923C71.1004 34.4361 71.0775 34.4871 71.0672 34.5414C71.0569 34.5956 71.0595 34.6514 71.0747 34.7045C71.0899 34.7575 71.1174 34.8062 71.1549 34.8467L81.0326 49.501Z" fill="#FFD501"/>
<path d="M89.5484 44.0271C89.5659 44.079 89.5953 44.1261 89.6342 44.1646C89.673 44.2032 89.7204 44.2322 89.7724 44.2493C89.8244 44.2664 89.8797 44.2712 89.9339 44.2632C89.9881 44.2553 90.0397 44.2348 90.0846 44.2034L96.2793 41.0426C96.7997 40.8145 97.2694 40.4849 97.6607 40.0729C98.052 39.661 98.3572 39.1751 98.5583 38.6437C98.7187 38.101 98.7664 37.5313 98.6984 36.9695C98.6305 36.4077 98.4483 35.8658 98.1632 35.377L97.2883 33.6625C96.9443 32.8934 96.3215 32.2833 95.5456 31.9551C95.2109 31.8127 94.8509 31.7392 94.4872 31.7392C94.1235 31.7392 93.7636 31.8127 93.4289 31.9551C93.9988 31.4689 94.3765 30.7954 94.4942 30.0556C94.6119 29.3159 94.4618 28.5584 94.071 27.9193L93.3654 26.5082C93.139 25.9909 92.8095 25.5251 92.3971 25.1394C91.9846 24.7536 91.4979 24.456 90.9665 24.2646C90.4199 24.1133 89.8484 24.0735 89.286 24.1474C88.7236 24.2214 88.1818 24.4076 87.6928 24.695L81.6815 27.7571C81.6285 27.7743 81.5803 27.8037 81.5409 27.8431C81.5015 27.8825 81.472 27.9307 81.4547 27.9837C81.4375 28.0367 81.4331 28.093 81.4419 28.1481C81.4506 28.2031 81.4723 28.2553 81.5051 28.3003L89.5484 44.0271ZM95.4891 34.615L96.3358 36.2801C97.079 37.7241 96.7144 38.8224 95.2422 39.575L91.0089 41.6917C90.977 41.7148 90.9401 41.7302 90.9012 41.7366C90.8624 41.743 90.8225 41.7403 90.7849 41.7286C90.7473 41.717 90.7128 41.6968 90.6844 41.6695C90.6559 41.6423 90.6341 41.6088 90.6208 41.5717L87.7986 36.0402C87.7785 36.0089 87.7659 35.9733 87.7619 35.9362C87.7579 35.8992 87.7626 35.8617 87.7756 35.8268C87.7886 35.7919 87.8096 35.7604 87.8369 35.735C87.8641 35.7096 87.8969 35.6909 87.9327 35.6804L91.9755 33.6202C93.5794 32.8441 94.7506 33.1757 95.4891 34.615ZM84.2709 28.4344L88.2925 26.3812C89.7036 25.6757 90.8325 26.0002 91.5733 27.4466L92.2789 28.8083C93.0173 30.2571 92.6363 31.3648 91.1359 32.1315L87.1919 34.1423C87.1616 34.1644 87.1267 34.1792 87.0899 34.1858C87.053 34.1924 87.0152 34.1906 86.9791 34.1804C86.9431 34.1702 86.9099 34.1519 86.8819 34.127C86.854 34.1021 86.8321 34.0711 86.8179 34.0365L84.158 28.8224C84.1347 28.791 84.119 28.7546 84.1122 28.7161C84.1053 28.6776 84.1074 28.638 84.1183 28.6005C84.1292 28.5629 84.1487 28.5284 84.1752 28.4996C84.2016 28.4708 84.2344 28.4485 84.2709 28.4344Z" fill="#FFD501"/>
<path d="M106.806 35.9825C106.815 36.0367 106.836 36.0882 106.868 36.1326C106.9 36.177 106.943 36.2132 106.992 36.238C107.041 36.2628 107.095 36.2756 107.15 36.2753C107.205 36.2751 107.259 36.2618 107.307 36.2365L115.866 33.3649C115.92 33.3554 115.972 33.3334 116.016 33.3004C116.06 33.2674 116.096 33.2245 116.121 33.175C116.146 33.1256 116.158 33.0711 116.158 33.0158C116.158 32.9605 116.145 32.9061 116.12 32.8569L115.788 31.8762C115.779 31.8217 115.756 31.7702 115.723 31.7259C115.691 31.6815 115.648 31.6456 115.598 31.6208C115.549 31.5961 115.494 31.5834 115.439 31.5836C115.384 31.5838 115.329 31.597 115.28 31.6222L108.605 33.8658C108.422 33.9293 108.302 33.8658 108.253 33.7106L106.305 27.911C106.256 27.7487 106.305 27.6358 106.496 27.5723L112.324 25.6179C112.378 25.6085 112.43 25.5864 112.474 25.5534C112.518 25.5205 112.554 25.4775 112.579 25.4281C112.604 25.3787 112.617 25.3241 112.616 25.2689C112.616 25.2136 112.603 25.1592 112.578 25.1099L112.246 24.1292C112.237 24.0748 112.215 24.0233 112.182 23.9789C112.149 23.9346 112.106 23.8986 112.056 23.8739C112.007 23.8492 111.952 23.8364 111.897 23.8367C111.842 23.8369 111.787 23.8501 111.738 23.8752L105.91 25.8296C105.727 25.8931 105.614 25.8296 105.558 25.6814L103.716 20.1499C103.66 19.9806 103.716 19.8748 103.907 19.8113L110.581 17.5747C110.636 17.5642 110.687 17.5412 110.731 17.5075C110.776 17.4738 110.812 17.4303 110.836 17.3804C110.861 17.3304 110.874 17.2755 110.873 17.2198C110.873 17.1642 110.86 17.1093 110.835 17.0596L110.51 16.0789C110.499 16.0248 110.476 15.9741 110.441 15.9307C110.407 15.8872 110.364 15.8522 110.314 15.8283C110.264 15.8045 110.209 15.7924 110.154 15.793C110.099 15.7936 110.045 15.8069 109.995 15.832L101.437 18.6965C101.383 18.7059 101.331 18.728 101.287 18.761C101.242 18.794 101.206 18.8369 101.182 18.8863C101.157 18.9357 101.144 18.9903 101.145 19.0456C101.145 19.1008 101.158 19.1553 101.183 19.2045L106.806 35.9825Z" fill="#FFD501"/>
<path d="M130.894 13.1445L134.781 12.7494C134.972 12.7494 135.078 12.8059 135.092 12.9752L136.708 28.8712C136.706 28.9258 136.717 28.9799 136.74 29.0295C136.763 29.0792 136.797 29.123 136.839 29.1576C136.881 29.1923 136.93 29.2169 136.983 29.2296C137.036 29.2424 137.092 29.2429 137.145 29.2311L138.436 29.097C138.491 29.0997 138.546 29.0896 138.596 29.0673C138.647 29.045 138.691 29.0113 138.726 28.9688C138.761 28.9263 138.786 28.8762 138.798 28.8225C138.81 28.7688 138.809 28.713 138.796 28.6596L137.18 12.7635C137.18 12.5942 137.251 12.4954 137.434 12.4743L141.329 12.0862C141.611 12.0509 141.745 11.9028 141.71 11.6417L141.611 10.5834C141.611 10.3223 141.428 10.2024 141.138 10.2306L130.71 11.2889C130.421 11.2889 130.294 11.4653 130.315 11.7405L130.428 12.7635C130.447 13.0457 130.602 13.1727 130.894 13.1445Z" fill="#FFD501"/>
<path d="M148.166 28.3707L149.577 28.4271C149.781 28.4271 149.936 28.3072 150.028 28.039L151.538 23.9045L158.488 24.1726L159.666 28.4059C159.715 28.674 159.842 28.8151 160.054 28.8222L161.571 28.928C161.818 28.928 161.91 28.8081 161.839 28.5329L157.126 10.6331C157.104 10.5105 157.038 10.4 156.941 10.3222C156.844 10.2443 156.721 10.2044 156.597 10.2098L154.515 10.1322C154.391 10.1161 154.265 10.1459 154.161 10.2161C154.057 10.2862 153.983 10.3919 153.951 10.5132L147.897 27.9614C147.827 28.2225 147.904 28.3636 148.166 28.3707ZM155.426 12.3194H155.546L158.114 22.3664L152.088 22.1336L155.426 12.3194Z" fill="#FFD501"/>
<path d="M177.799 27.2131L184.523 17.1449H184.636L181.418 32.0532C181.4 32.1053 181.393 32.1609 181.4 32.2158C181.406 32.2707 181.425 32.3234 181.455 32.3698C181.485 32.4162 181.525 32.455 181.573 32.4833C181.62 32.5116 181.674 32.5286 181.729 32.533L182.963 32.8011C183.015 32.8199 183.07 32.8263 183.125 32.82C183.179 32.8136 183.232 32.7946 183.278 32.7644C183.323 32.7343 183.362 32.6938 183.389 32.6463C183.417 32.5988 183.433 32.5455 183.436 32.4907L187.168 15.2188C187.187 15.1667 187.193 15.1111 187.187 15.0562C187.181 15.0013 187.162 14.9486 187.132 14.9022C187.102 14.8558 187.061 14.817 187.014 14.7887C186.966 14.7604 186.913 14.7434 186.858 14.739L184.586 14.2522C184.398 14.2098 184.271 14.2592 184.205 14.4003L177.051 25.0612H176.91L174.793 12.4389C174.787 12.3646 174.756 12.2946 174.705 12.2407C174.653 12.1867 174.585 12.1521 174.511 12.1426L172.239 11.6487C172.186 11.6302 172.131 11.624 172.075 11.6303C172.02 11.6367 171.967 11.6556 171.92 11.6855C171.873 11.7154 171.834 11.7556 171.805 11.803C171.775 11.8504 171.758 11.9038 171.752 11.9591L168.027 29.231C168.008 29.2831 168.002 29.3387 168.008 29.3936C168.015 29.4485 168.034 29.5012 168.064 29.5476C168.094 29.594 168.134 29.6328 168.181 29.6611C168.229 29.6894 168.282 29.7064 168.337 29.7108L169.572 29.9789C169.819 30.0283 169.967 29.9224 170.024 29.6614L173.248 14.7249H173.361L175.414 26.7192C175.413 26.8325 175.453 26.9423 175.527 27.028C175.601 27.1137 175.704 27.1695 175.816 27.1849L177.164 27.4812C177.284 27.5118 177.412 27.5021 177.526 27.4537C177.641 27.4053 177.736 27.3208 177.799 27.2131Z" fill="#FFD501"/>
<path d="M192.665 35.7928L194.958 30.1484C194.969 30.1125 194.989 30.0797 195.015 30.0524C195.041 30.0252 195.073 30.0043 195.108 29.9914C195.144 29.9785 195.182 29.9738 195.219 29.9778C195.257 29.9818 195.293 29.9943 195.325 30.0144L199.72 31.75C200.229 32.0111 200.79 32.1568 201.362 32.1767C201.933 32.1966 202.503 32.0903 203.029 31.8653C203.555 31.6403 204.025 31.3022 204.405 30.875C204.786 30.4478 205.068 29.942 205.231 29.3935L206.43 26.4372C206.671 25.921 206.807 25.362 206.83 24.7927C206.853 24.2234 206.763 23.6552 206.564 23.1212C206.324 22.606 205.984 22.1444 205.562 21.7638C205.14 21.3831 204.646 21.0913 204.109 20.9057L197.879 18.3869C197.831 18.359 197.777 18.3425 197.722 18.3387C197.667 18.335 197.611 18.344 197.56 18.3652C197.509 18.3863 197.463 18.4191 197.427 18.4608C197.39 18.5025 197.364 18.5521 197.35 18.6056L190.717 34.9815C190.691 35.0291 190.675 35.0821 190.672 35.1365C190.669 35.191 190.679 35.2454 190.7 35.2957C190.721 35.346 190.753 35.3908 190.794 35.4268C190.835 35.4628 190.884 35.4891 190.936 35.5036L192.143 35.9904C192.189 36.0186 192.24 36.0359 192.294 36.041C192.348 36.0461 192.402 36.0389 192.452 36.0198C192.503 36.0007 192.548 35.9703 192.585 35.931C192.622 35.8916 192.649 35.8444 192.665 35.7928ZM195.854 27.9048L198.676 20.9833C198.74 20.8281 198.859 20.7787 199.043 20.8563L203.163 22.5285C204.659 23.1259 205.092 24.1983 204.462 25.7458L203.333 28.568C202.712 30.092 201.661 30.5506 200.165 29.9791L196.044 28.3069C195.847 28.2223 195.79 28.0671 195.854 27.9048Z" fill="#FFD501"/>
<path d="M207.707 43.0383L215.468 47.6032C215.511 47.6368 215.562 47.66 215.615 47.6711C215.669 47.6822 215.724 47.6809 215.778 47.6673C215.831 47.6537 215.88 47.6281 215.922 47.5926C215.963 47.557 215.996 47.5124 216.018 47.4621L216.604 46.5661C216.639 46.5228 216.663 46.4719 216.674 46.4176C216.686 46.3632 216.684 46.3069 216.67 46.2533C216.655 46.1996 216.628 46.1502 216.591 46.1089C216.554 46.0676 216.508 46.0357 216.456 46.0158L210.388 42.488C210.219 42.3963 210.176 42.2693 210.268 42.1211L213.365 36.8436C213.381 36.8102 213.405 36.781 213.434 36.7582C213.463 36.7354 213.497 36.7196 213.533 36.7121C213.569 36.7046 213.607 36.7055 213.643 36.7149C213.678 36.7242 213.711 36.7417 213.739 36.766L219.045 39.8775C219.089 39.9108 219.141 39.9337 219.195 39.9443C219.25 39.9549 219.306 39.953 219.36 39.9388C219.413 39.9245 219.463 39.8982 219.505 39.8619C219.547 39.8257 219.58 39.7803 219.602 39.7293L220.117 38.8403C220.152 38.7975 220.177 38.7471 220.189 38.6931C220.201 38.6391 220.2 38.583 220.186 38.5295C220.172 38.4759 220.146 38.4263 220.11 38.3847C220.073 38.3431 220.028 38.3107 219.976 38.29L214.671 35.1785C214.508 35.0797 214.466 34.9598 214.558 34.8116L217.493 29.8022C217.578 29.654 217.704 29.6329 217.874 29.7246L223.942 33.2524C223.984 33.2873 224.035 33.3118 224.089 33.3237C224.143 33.3356 224.199 33.3346 224.252 33.3209C224.306 33.3072 224.356 33.281 224.397 33.2446C224.439 33.2082 224.471 33.1625 224.492 33.1112L225.021 32.2152C225.054 32.172 225.077 32.1217 225.088 32.0681C225.099 32.0146 225.097 31.9593 225.082 31.9067C225.068 31.854 225.041 31.8054 225.005 31.7647C224.969 31.7239 224.924 31.6922 224.873 31.6719L217.112 27.1C217.068 27.0666 217.017 27.0437 216.963 27.0331C216.909 27.0225 216.853 27.0244 216.8 27.0387C216.747 27.0531 216.698 27.0794 216.657 27.1157C216.615 27.152 216.583 27.1973 216.562 27.2481L207.622 42.488C207.587 42.5276 207.56 42.5747 207.545 42.6257C207.53 42.6768 207.526 42.7306 207.534 42.7832C207.542 42.8359 207.562 42.8861 207.592 42.9302C207.622 42.9743 207.661 43.0112 207.707 43.0383Z" fill="#FFD501"/>
<path d="M222.086 52.1262L223.088 52.9164C223.126 52.957 223.173 52.9882 223.226 53.0074C223.278 53.0266 223.334 53.0334 223.389 53.0273C223.445 53.0211 223.498 53.0022 223.545 52.9719C223.592 52.9417 223.631 52.9009 223.659 52.853L227.843 47.6319C227.865 47.6013 227.893 47.5764 227.926 47.5591C227.96 47.5419 227.996 47.5329 228.034 47.5329C228.071 47.5329 228.108 47.5419 228.141 47.5591C228.174 47.5764 228.203 47.6013 228.224 47.6319L231.188 49.9955L229.353 57.439C229.327 57.5824 229.343 57.7301 229.398 57.865C229.453 57.9999 229.545 58.1164 229.664 58.201L230.673 59.0124C230.955 59.2382 231.131 59.1747 231.181 58.829L232.944 51.3007L233.022 51.209C233.813 51.5973 234.717 51.6875 235.569 51.463C236.48 51.1974 237.278 50.6396 237.841 49.8755L239.471 47.8365C239.854 47.4117 240.145 46.9122 240.326 46.3695C240.507 45.8267 240.574 45.2524 240.522 44.6827C240.437 44.1197 240.24 43.5796 239.942 43.0947C239.644 42.6098 239.251 42.19 238.786 41.8605L233.629 37.733C233.592 37.6921 233.546 37.6605 233.494 37.6407C233.443 37.6209 233.387 37.6134 233.332 37.6189C233.277 37.6244 233.225 37.6427 233.178 37.6723C233.132 37.7019 233.093 37.7421 233.064 37.7895L222.022 51.5618C221.982 51.5993 221.951 51.6459 221.932 51.6977C221.912 51.7495 221.905 51.8051 221.912 51.8601C221.918 51.915 221.937 51.9677 221.967 52.0139C221.997 52.0602 222.038 52.0986 222.086 52.1262ZM229.261 45.8609L233.643 40.3929C233.666 40.3636 233.695 40.3398 233.729 40.3235C233.763 40.3072 233.8 40.2987 233.837 40.2987C233.874 40.2987 233.911 40.3072 233.945 40.3235C233.978 40.3398 234.008 40.3636 234.031 40.3929L237.418 43.1022C238.702 44.1323 238.824 45.3083 237.784 46.63L236.183 48.6196C235.153 49.9085 233.996 50.0378 232.712 49.0077L229.304 46.2631C229.27 46.2428 229.242 46.215 229.221 46.182C229.2 46.1489 229.187 46.1115 229.183 46.0725C229.179 46.0336 229.184 45.9942 229.197 45.9575C229.211 45.9208 229.233 45.8878 229.261 45.8609Z" fill="#FFD501"/>
<path d="M236.162 64.2758L242.307 70.8868C242.34 70.9306 242.383 70.9662 242.432 70.9907C242.481 71.0152 242.535 71.0279 242.589 71.0279C242.644 71.0279 242.698 71.0152 242.747 70.9907C242.796 70.9662 242.839 70.9306 242.872 70.8868L243.627 70.1813C243.67 70.1484 243.706 70.1058 243.73 70.0568C243.755 70.0078 243.768 69.9538 243.768 69.899C243.768 69.8443 243.755 69.7903 243.73 69.7413C243.706 69.6923 243.67 69.6497 243.627 69.6168L238.836 64.4592C238.709 64.3181 238.702 64.1911 238.836 64.0712L243.323 59.9014C243.346 59.8721 243.374 59.8484 243.407 59.8321C243.441 59.8158 243.477 59.8073 243.514 59.8073C243.551 59.8073 243.587 59.8158 243.62 59.8321C243.653 59.8484 243.682 59.8721 243.704 59.9014L247.888 64.4099C247.922 64.4538 247.965 64.4893 248.015 64.5138C248.064 64.5383 248.119 64.551 248.174 64.551C248.229 64.551 248.284 64.5383 248.333 64.5138C248.383 64.4893 248.426 64.4538 248.46 64.4099L249.215 63.7043C249.258 63.6707 249.294 63.6275 249.319 63.5779C249.343 63.5284 249.356 63.4738 249.356 63.4186C249.356 63.3633 249.343 63.3088 249.319 63.2592C249.294 63.2097 249.258 63.1664 249.215 63.1328L245.031 58.6314C244.904 58.4903 244.897 58.3633 245.031 58.2434L249.264 54.2923C249.287 54.2629 249.317 54.2392 249.35 54.2229C249.384 54.2066 249.421 54.1981 249.458 54.1981C249.495 54.1981 249.532 54.2066 249.566 54.2229C249.599 54.2392 249.629 54.2629 249.652 54.2923L254.443 59.4498C254.476 59.4937 254.518 59.5292 254.567 59.5537C254.616 59.5782 254.67 59.591 254.725 59.591C254.78 59.591 254.834 59.5782 254.883 59.5537C254.932 59.5292 254.974 59.4937 255.007 59.4498L255.769 58.7443C255.813 58.7114 255.849 58.6688 255.873 58.6198C255.898 58.5709 255.91 58.5168 255.91 58.4621C255.91 58.4073 255.898 58.3533 255.873 58.3043C255.849 58.2553 255.813 58.2127 255.769 58.1799L249.624 51.5688C249.591 51.525 249.548 51.4895 249.499 51.465C249.45 51.4405 249.396 51.4277 249.342 51.4277C249.287 51.4277 249.233 51.4405 249.184 51.465C249.135 51.4895 249.092 51.525 249.059 51.5688L236.112 63.5632C236.018 63.5697 235.93 63.6136 235.868 63.685C235.806 63.7565 235.774 63.8497 235.781 63.9442C235.787 64.0387 235.831 64.1267 235.903 64.1889C235.974 64.2511 236.067 64.2824 236.162 64.2758Z" fill="#FFD501"/>
<path d="M258.937 96.3498C258.954 96.4023 258.983 96.4501 259.021 96.4895C259.06 96.5289 259.107 96.5587 259.159 96.5765C259.211 96.5943 259.267 96.5997 259.321 96.5922C259.376 96.5847 259.428 96.5645 259.473 96.5333L275.313 88.6946C275.365 88.6779 275.413 88.6491 275.453 88.6105C275.492 88.572 275.522 88.5248 275.54 88.4726C275.557 88.4205 275.563 88.3649 275.555 88.3104C275.548 88.2558 275.528 88.2037 275.496 88.1584L275.151 87.4528C275.133 87.403 275.103 87.3581 275.065 87.3218C275.026 87.2854 274.98 87.2586 274.929 87.2435C274.878 87.2284 274.824 87.2255 274.772 87.2349C274.72 87.2442 274.671 87.2657 274.629 87.2976L258.789 95.1292C258.549 95.2562 258.486 95.4255 258.591 95.6443L258.937 96.3498Z" fill="#FFD501"/>
<path d="M268.906 125.031L270.451 133.921C270.453 133.976 270.467 134.03 270.494 134.078C270.52 134.127 270.557 134.169 270.602 134.2C270.648 134.232 270.7 134.252 270.754 134.26C270.809 134.268 270.865 134.263 270.917 134.245L271.933 134.069C271.988 134.067 272.042 134.052 272.091 134.026C272.14 134 272.182 133.963 272.214 133.918C272.246 133.873 272.267 133.821 272.276 133.766C272.285 133.712 272.281 133.656 272.265 133.603L271.058 126.667C271.023 126.477 271.093 126.371 271.263 126.336L277.288 125.292C277.458 125.292 277.563 125.341 277.592 125.532L278.65 131.585C278.65 131.641 278.664 131.696 278.69 131.745C278.716 131.795 278.753 131.838 278.798 131.87C278.844 131.902 278.896 131.923 278.951 131.932C279.006 131.94 279.063 131.935 279.116 131.917L280.132 131.74C280.187 131.738 280.241 131.724 280.29 131.698C280.338 131.672 280.38 131.635 280.412 131.589C280.445 131.544 280.466 131.493 280.475 131.438C280.483 131.383 280.48 131.328 280.463 131.275L279.405 125.214C279.405 125.024 279.44 124.918 279.617 124.889L285.332 123.895C285.501 123.895 285.6 123.944 285.635 124.135L286.841 131.07C286.843 131.125 286.857 131.179 286.884 131.228C286.91 131.277 286.947 131.318 286.992 131.35C287.038 131.381 287.09 131.402 287.144 131.41C287.199 131.418 287.255 131.412 287.307 131.395L288.323 131.218C288.378 131.217 288.432 131.202 288.481 131.176C288.53 131.15 288.571 131.113 288.603 131.067C288.634 131.022 288.655 130.97 288.663 130.915C288.67 130.861 288.665 130.805 288.648 130.753L287.109 121.863C287.108 121.807 287.094 121.753 287.067 121.705C287.041 121.656 287.004 121.614 286.959 121.583C286.913 121.551 286.861 121.531 286.807 121.523C286.752 121.515 286.696 121.52 286.644 121.538L269.231 124.565C269.176 124.566 269.122 124.581 269.073 124.607C269.024 124.633 268.983 124.671 268.951 124.716C268.919 124.761 268.899 124.813 268.891 124.868C268.883 124.923 268.889 124.978 268.906 125.031Z" fill="#FFD501"/>
<path d="M289.981 151.516C289.987 151.462 289.98 151.406 289.962 151.355C289.943 151.303 289.913 151.257 289.873 151.218C289.834 151.18 289.786 151.152 289.734 151.135C289.682 151.118 289.626 151.113 289.572 151.121L275.807 151.418V151.298L289.572 143.078C289.649 143.03 289.711 142.96 289.75 142.877C289.789 142.795 289.803 142.703 289.791 142.612V141.434C289.797 141.379 289.79 141.324 289.771 141.273C289.753 141.221 289.722 141.174 289.683 141.136C289.643 141.098 289.596 141.069 289.543 141.053C289.491 141.036 289.436 141.031 289.381 141.039L271.743 141.413C271.688 141.408 271.632 141.416 271.581 141.435C271.529 141.455 271.483 141.486 271.445 141.526C271.407 141.566 271.378 141.614 271.362 141.666C271.345 141.719 271.34 141.774 271.348 141.829V143.092C271.341 143.147 271.348 143.203 271.367 143.255C271.386 143.307 271.417 143.354 271.457 143.392C271.498 143.429 271.547 143.457 271.6 143.472C271.653 143.488 271.709 143.49 271.764 143.48L285.522 143.191V143.304L271.905 151.502C271.8 151.567 271.713 151.656 271.649 151.762C271.585 151.867 271.547 151.986 271.538 152.109V153.174C271.533 153.229 271.541 153.284 271.56 153.335C271.58 153.387 271.611 153.433 271.651 153.47C271.691 153.508 271.739 153.536 271.792 153.552C271.845 153.568 271.9 153.571 271.954 153.562L289.593 153.188C289.647 153.195 289.702 153.188 289.754 153.169C289.805 153.151 289.852 153.12 289.889 153.081C289.927 153.041 289.955 152.993 289.971 152.941C289.987 152.888 289.99 152.833 289.981 152.779V151.516Z" fill="#FFD501"/>
<path d="M289.134 161.762L288.104 161.635C287.843 161.599 287.688 161.726 287.66 162.009L287.173 165.889C287.145 166.077 287.046 166.162 286.877 166.143L271.023 164.153C270.97 164.139 270.914 164.137 270.86 164.149C270.806 164.16 270.755 164.183 270.712 164.218C270.669 164.252 270.634 164.296 270.611 164.346C270.588 164.396 270.577 164.451 270.579 164.506L270.416 165.79C270.402 165.844 270.4 165.9 270.411 165.954C270.423 166.008 270.446 166.058 270.481 166.102C270.515 166.145 270.559 166.179 270.609 166.203C270.659 166.226 270.714 166.237 270.769 166.235L286.616 168.224C286.785 168.224 286.863 168.344 286.841 168.535L286.355 172.415C286.337 172.47 286.332 172.528 286.341 172.585C286.35 172.642 286.372 172.696 286.406 172.743C286.44 172.79 286.484 172.828 286.535 172.854C286.586 172.881 286.643 172.895 286.7 172.895L287.723 173.022C287.991 173.058 288.14 172.931 288.175 172.641L289.48 162.277C289.515 161.952 289.403 161.797 289.134 161.762Z" fill="#FFD501"/>
<path d="M286.037 181.432L268.991 176.782C268.941 176.761 268.886 176.752 268.832 176.756C268.777 176.759 268.725 176.775 268.677 176.802C268.63 176.83 268.59 176.868 268.56 176.913C268.53 176.959 268.511 177.011 268.504 177.065L268.158 178.313C268.136 178.364 268.126 178.419 268.128 178.475C268.131 178.53 268.147 178.584 268.174 178.632C268.202 178.68 268.24 178.721 268.287 178.751C268.333 178.782 268.386 178.801 268.441 178.807L274.896 180.564C275.066 180.614 275.122 180.726 275.073 180.917L274.078 184.572L266.522 185.849C266.379 185.88 266.248 185.952 266.145 186.056C266.043 186.16 265.972 186.291 265.943 186.434L265.597 187.676C265.506 188.029 265.633 188.163 265.971 188.078L273.584 186.702H273.697C273.653 187.585 273.928 188.455 274.473 189.151C275.082 189.875 275.909 190.382 276.83 190.597L279.348 191.303C279.891 191.485 280.465 191.553 281.036 191.505C281.606 191.456 282.16 191.291 282.665 191.02C283.15 190.718 283.57 190.321 283.9 189.853C284.229 189.385 284.462 188.856 284.584 188.297L286.319 181.947C286.346 181.896 286.36 181.838 286.359 181.78C286.359 181.722 286.344 181.665 286.316 181.614C286.288 181.563 286.248 181.52 286.199 181.488C286.151 181.456 286.095 181.437 286.037 181.432ZM284.026 183.358L282.883 187.542C282.451 189.132 281.43 189.708 279.821 189.271L277.352 188.565C275.764 188.135 275.186 187.119 275.623 185.531L276.766 181.347C276.816 181.164 276.928 181.093 277.091 181.136L283.85 182.984C284.019 183.055 284.076 183.175 284.026 183.358Z" fill="#FFD501"/>
<path d="M279.652 201.703L263.474 194.598C263.427 194.57 263.374 194.553 263.32 194.548C263.265 194.544 263.21 194.551 263.159 194.571C263.108 194.591 263.062 194.622 263.025 194.662C262.988 194.702 262.96 194.75 262.945 194.803L259.318 203.065C259.289 203.111 259.27 203.164 259.265 203.219C259.259 203.274 259.267 203.329 259.287 203.381C259.307 203.432 259.339 203.478 259.379 203.515C259.42 203.552 259.469 203.579 259.523 203.594L260.468 204.01C260.515 204.04 260.568 204.058 260.623 204.063C260.677 204.069 260.733 204.061 260.784 204.041C260.836 204.021 260.882 203.989 260.919 203.949C260.956 203.908 260.983 203.859 260.997 203.805L263.819 197.364C263.89 197.18 264.01 197.131 264.172 197.201L269.774 199.664C269.93 199.727 269.972 199.854 269.894 200.031L267.418 205.675C267.39 205.722 267.373 205.776 267.369 205.831C267.365 205.885 267.373 205.941 267.394 205.992C267.414 206.043 267.446 206.089 267.487 206.125C267.528 206.162 267.577 206.189 267.629 206.204L268.575 206.62C268.622 206.65 268.675 206.668 268.731 206.673C268.786 206.678 268.842 206.67 268.893 206.649C268.945 206.628 268.991 206.596 269.027 206.554C269.064 206.512 269.09 206.463 269.104 206.409L271.581 200.764C271.589 200.728 271.606 200.694 271.629 200.665C271.653 200.636 271.684 200.613 271.718 200.598C271.752 200.583 271.79 200.576 271.827 200.578C271.864 200.58 271.901 200.591 271.933 200.609L277.246 202.945C277.401 203.015 277.444 203.135 277.366 203.311L274.544 209.753C274.514 209.8 274.496 209.854 274.491 209.909C274.486 209.964 274.495 210.02 274.515 210.072C274.536 210.123 274.568 210.169 274.61 210.206C274.652 210.242 274.702 210.269 274.756 210.282L275.701 210.699C275.748 210.728 275.8 210.746 275.855 210.752C275.91 210.757 275.966 210.75 276.017 210.73C276.069 210.71 276.115 210.678 276.152 210.637C276.189 210.596 276.216 210.547 276.23 210.494L279.857 202.232C279.886 202.185 279.904 202.133 279.91 202.078C279.915 202.023 279.908 201.967 279.888 201.916C279.868 201.864 279.836 201.818 279.795 201.781C279.754 201.744 279.705 201.717 279.652 201.703Z" fill="#FFD501"/>
<path d="M271.087 219.426L256.115 210.057C256.074 210.02 256.025 209.993 255.972 209.979C255.919 209.964 255.863 209.963 255.809 209.975C255.755 209.986 255.705 210.011 255.662 210.046C255.62 210.081 255.586 210.126 255.565 210.177L254.859 211.277C254.824 211.32 254.799 211.37 254.787 211.423C254.774 211.477 254.775 211.533 254.788 211.586C254.801 211.64 254.826 211.689 254.862 211.731C254.897 211.773 254.942 211.806 254.993 211.828L260.179 215.08C260.327 215.165 260.348 215.292 260.249 215.454L257.731 219.476C257.385 219.932 257.144 220.458 257.025 221.017C256.906 221.577 256.912 222.156 257.042 222.713C257.172 223.27 257.423 223.791 257.778 224.24C258.132 224.689 258.581 225.055 259.092 225.311L261.802 227.004C262.268 227.33 262.794 227.561 263.35 227.682C263.906 227.803 264.48 227.813 265.04 227.709C265.59 227.567 266.105 227.313 266.552 226.963C267 226.614 267.372 226.176 267.644 225.677L271.214 219.977C271.249 219.935 271.274 219.885 271.287 219.832C271.3 219.779 271.3 219.723 271.288 219.67C271.276 219.616 271.251 219.567 271.216 219.524C271.181 219.482 271.137 219.448 271.087 219.426ZM268.61 220.682L266.247 224.457C265.393 225.819 264.257 226.066 262.846 225.162L260.292 223.568C258.881 222.693 258.62 221.571 259.473 220.209L261.837 216.435C261.936 216.273 262.063 216.237 262.204 216.329L268.554 220.287C268.588 220.305 268.618 220.331 268.64 220.363C268.662 220.395 268.677 220.432 268.682 220.47C268.688 220.509 268.684 220.548 268.672 220.585C268.659 220.622 268.638 220.655 268.61 220.682Z" fill="#FFD501"/>
<path d="M245.905 225.296C245.869 225.255 245.823 225.222 245.771 225.201C245.72 225.18 245.664 225.172 245.609 225.176C245.554 225.18 245.5 225.197 245.452 225.225C245.405 225.253 245.364 225.292 245.334 225.339L244.494 226.319C244.453 226.355 244.42 226.401 244.399 226.452C244.378 226.502 244.37 226.557 244.374 226.612C244.378 226.667 244.395 226.72 244.423 226.767C244.451 226.815 244.49 226.854 244.537 226.884L249.617 231.244C249.751 231.357 249.751 231.484 249.617 231.632L247.147 234.511L239.781 232.394C239.638 232.363 239.49 232.374 239.353 232.424C239.215 232.473 239.095 232.561 239.005 232.676L238.166 233.664C237.926 233.939 237.982 234.109 238.328 234.179L245.793 236.197L245.884 236.268C245.464 237.047 245.341 237.952 245.539 238.815C245.773 239.731 246.304 240.545 247.048 241.129L249.031 242.836C249.444 243.233 249.933 243.54 250.47 243.739C251.006 243.938 251.578 244.025 252.15 243.993C252.718 243.928 253.267 243.75 253.765 243.469C254.263 243.188 254.7 242.81 255.049 242.357L259.353 237.34C259.393 237.303 259.425 237.258 259.445 237.207C259.465 237.157 259.473 237.102 259.469 237.048C259.465 236.993 259.449 236.941 259.421 236.893C259.394 236.846 259.356 236.806 259.311 236.776L245.905 225.296ZM256.672 237.679L253.85 240.967C252.777 242.215 251.613 242.3 250.322 241.214L248.389 239.549C247.133 238.476 247.048 237.319 248.121 236.063L250.943 232.775C250.962 232.743 250.988 232.715 251.02 232.694C251.052 232.673 251.087 232.66 251.125 232.655C251.162 232.65 251.2 232.654 251.236 232.667C251.272 232.679 251.304 232.699 251.331 232.726L256.644 237.291C256.676 237.311 256.703 237.338 256.723 237.37C256.743 237.403 256.755 237.44 256.757 237.478C256.76 237.515 256.754 237.553 256.739 237.588C256.724 237.623 256.701 237.654 256.672 237.679Z" fill="#FFD501"/>
<path d="M233.283 239.033C233.254 238.987 233.214 238.948 233.167 238.919C233.12 238.891 233.066 238.874 233.012 238.87C232.957 238.866 232.902 238.875 232.851 238.896C232.8 238.917 232.755 238.949 232.719 238.991L225.903 244.903C225.857 244.933 225.818 244.974 225.789 245.022C225.761 245.07 225.744 245.123 225.74 245.179C225.736 245.234 225.745 245.289 225.766 245.341C225.787 245.392 225.819 245.438 225.861 245.475L226.566 246.251C226.596 246.297 226.636 246.336 226.683 246.365C226.73 246.393 226.783 246.41 226.838 246.414C226.893 246.418 226.948 246.409 226.999 246.388C227.05 246.367 227.095 246.335 227.131 246.293L232.451 241.686C232.599 241.552 232.726 241.559 232.839 241.686L236.846 246.314C236.959 246.441 236.945 246.568 236.804 246.695L232.126 250.724C232.08 250.753 232.041 250.793 232.012 250.841C231.984 250.888 231.967 250.941 231.963 250.996C231.959 251.05 231.968 251.106 231.989 251.156C232.01 251.207 232.042 251.252 232.084 251.289L232.789 252.072C232.819 252.118 232.859 252.157 232.906 252.185C232.953 252.214 233.006 252.23 233.061 252.235C233.116 252.239 233.171 252.23 233.222 252.209C233.273 252.188 233.318 252.156 233.354 252.114L237.996 248.085C238.144 247.958 238.271 247.958 238.384 248.085L242.187 252.467C242.214 252.493 242.234 252.526 242.247 252.562C242.259 252.597 242.263 252.635 242.258 252.673C242.253 252.71 242.24 252.746 242.219 252.778C242.198 252.809 242.17 252.836 242.138 252.855L236.818 257.462C236.772 257.493 236.734 257.534 236.706 257.582C236.678 257.63 236.662 257.684 236.659 257.739C236.655 257.794 236.665 257.85 236.686 257.901C236.708 257.952 236.741 257.997 236.783 258.034L237.488 258.81C237.519 258.856 237.559 258.895 237.607 258.923C237.655 258.952 237.708 258.969 237.764 258.973C237.819 258.977 237.874 258.968 237.926 258.947C237.977 258.926 238.023 258.894 238.06 258.852L244.868 252.939C244.915 252.91 244.954 252.87 244.982 252.823C245.01 252.776 245.027 252.723 245.031 252.668C245.035 252.613 245.027 252.558 245.006 252.507C244.985 252.456 244.952 252.411 244.911 252.375L233.283 239.033Z" fill="#FFD501"/>
<path d="M220.054 249.857C220.031 249.806 219.997 249.762 219.954 249.727C219.911 249.692 219.861 249.668 219.807 249.655C219.753 249.643 219.697 249.644 219.643 249.656C219.589 249.669 219.539 249.694 219.497 249.73L218.431 250.435C218.38 250.456 218.335 250.489 218.299 250.531C218.263 250.573 218.238 250.624 218.225 250.678C218.213 250.731 218.213 250.788 218.227 250.841C218.241 250.895 218.267 250.944 218.304 250.986L225.628 262.634L225.529 262.698L211.503 255.198C211.393 255.144 211.272 255.116 211.15 255.116C211.028 255.116 210.907 255.144 210.797 255.198L209.901 255.762C209.85 255.784 209.805 255.818 209.77 255.861C209.734 255.903 209.709 255.954 209.696 256.008C209.683 256.062 209.682 256.118 209.695 256.172C209.707 256.226 209.732 256.277 209.767 256.32L219.172 271.277C219.195 271.328 219.229 271.372 219.272 271.407C219.315 271.442 219.366 271.466 219.419 271.478C219.473 271.491 219.529 271.49 219.583 271.478C219.637 271.465 219.687 271.44 219.729 271.404L220.802 270.734C220.852 270.711 220.897 270.677 220.931 270.634C220.966 270.591 220.991 270.541 221.003 270.487C221.015 270.433 221.015 270.377 221.002 270.323C220.989 270.269 220.964 270.219 220.929 270.177L213.598 258.528L213.697 258.464L227.808 266.042C227.889 266.086 227.981 266.104 228.073 266.095C228.165 266.087 228.252 266.051 228.323 265.993L229.318 265.365C229.368 265.342 229.413 265.307 229.447 265.265C229.482 265.222 229.507 265.171 229.519 265.117C229.531 265.063 229.531 265.007 229.518 264.954C229.505 264.9 229.48 264.85 229.445 264.807L220.054 249.857Z" fill="#FFD501"/>
<path d="M202.796 259.868C202.781 259.815 202.754 259.766 202.717 259.725C202.681 259.685 202.635 259.653 202.584 259.632C202.533 259.612 202.477 259.603 202.423 259.607C202.368 259.612 202.314 259.628 202.267 259.656L194.026 263.248C193.972 263.261 193.923 263.288 193.881 263.324C193.839 263.361 193.807 263.407 193.786 263.459C193.765 263.51 193.757 263.566 193.762 263.621C193.767 263.676 193.785 263.73 193.815 263.777L194.231 264.729C194.247 264.782 194.274 264.83 194.311 264.87C194.349 264.91 194.395 264.941 194.446 264.961C194.497 264.981 194.551 264.988 194.606 264.984C194.66 264.979 194.713 264.962 194.76 264.934L201.216 262.112C201.392 262.041 201.512 262.112 201.583 262.239L204.017 267.883C204.087 268.038 204.017 268.158 203.855 268.236L198.21 270.677C198.156 270.691 198.107 270.717 198.065 270.754C198.023 270.79 197.991 270.836 197.97 270.888C197.949 270.94 197.941 270.995 197.946 271.051C197.951 271.106 197.969 271.159 197.999 271.206L198.408 272.159C198.424 272.211 198.451 272.259 198.488 272.299C198.526 272.339 198.571 272.371 198.622 272.39C198.673 272.41 198.728 272.418 198.783 272.413C198.837 272.409 198.89 272.391 198.937 272.363L204.581 269.922C204.758 269.845 204.878 269.887 204.948 270.042L207.255 275.369C207.272 275.402 207.282 275.439 207.282 275.476C207.283 275.514 207.276 275.551 207.26 275.585C207.244 275.619 207.221 275.649 207.192 275.673C207.163 275.696 207.129 275.713 207.093 275.722L200.637 278.544C200.583 278.558 200.534 278.584 200.492 278.621C200.45 278.657 200.418 278.703 200.397 278.755C200.376 278.806 200.368 278.862 200.373 278.917C200.378 278.973 200.396 279.026 200.426 279.073L200.835 280.026C200.85 280.079 200.877 280.127 200.914 280.168C200.951 280.209 200.996 280.241 201.047 280.262C201.098 280.282 201.154 280.291 201.208 280.286C201.263 280.282 201.317 280.265 201.364 280.237L209.64 276.646C209.694 276.632 209.744 276.606 209.785 276.569C209.827 276.533 209.86 276.487 209.88 276.435C209.901 276.384 209.909 276.328 209.904 276.273C209.899 276.217 209.881 276.164 209.852 276.117L202.796 259.868Z" fill="#FFD501"/>
<path d="M188.086 269.873C187.972 269.312 187.745 268.779 187.417 268.31C187.089 267.84 186.668 267.443 186.181 267.142C185.677 266.876 185.126 266.713 184.558 266.665C183.991 266.616 183.42 266.683 182.879 266.86L179.802 267.686C179.248 267.801 178.723 268.027 178.258 268.35C177.792 268.672 177.396 269.084 177.093 269.562C176.826 270.068 176.664 270.622 176.615 271.192C176.567 271.762 176.633 272.335 176.811 272.879L180.388 286.284C180.396 286.336 180.416 286.386 180.447 286.429C180.477 286.471 180.518 286.507 180.564 286.531C180.611 286.556 180.662 286.569 180.715 286.571C180.768 286.572 180.82 286.561 180.868 286.538L182.124 286.206C182.364 286.141 182.448 285.978 182.378 285.72L178.85 272.455C178.42 270.84 178.984 269.831 180.536 269.414L183.147 268.709C184.685 268.3 185.668 268.899 186.096 270.508L189.624 283.779C189.63 283.834 189.649 283.887 189.68 283.933C189.71 283.98 189.751 284.018 189.799 284.046C189.847 284.073 189.901 284.089 189.956 284.092C190.012 284.094 190.067 284.084 190.118 284.062L191.366 283.73C191.421 283.722 191.473 283.702 191.518 283.671C191.564 283.641 191.601 283.6 191.629 283.552C191.656 283.504 191.672 283.451 191.675 283.396C191.679 283.342 191.67 283.287 191.649 283.236L188.086 269.873Z" fill="#FFD501"/>
<path d="M167.858 270.176L166.566 270.31C166.511 270.308 166.456 270.319 166.406 270.343C166.356 270.366 166.312 270.4 166.278 270.444C166.244 270.487 166.22 270.538 166.209 270.592C166.198 270.646 166.199 270.702 166.214 270.755L166.919 277.408C166.919 277.578 166.849 277.676 166.658 277.697L162.891 278.1L158.946 271.531C158.865 271.41 158.751 271.315 158.617 271.257C158.483 271.199 158.335 271.182 158.192 271.206L156.907 271.34C156.548 271.383 156.47 271.545 156.668 271.827L160.724 278.417V278.53C159.89 278.817 159.183 279.389 158.728 280.146C158.274 280.979 158.103 281.937 158.241 282.876L158.523 285.473C158.55 286.043 158.695 286.602 158.947 287.114C159.2 287.626 159.555 288.081 159.991 288.45C160.451 288.791 160.974 289.038 161.53 289.175C162.086 289.311 162.663 289.336 163.229 289.247L169.798 288.542C169.853 288.543 169.908 288.532 169.958 288.509C170.009 288.486 170.053 288.451 170.088 288.408C170.122 288.365 170.147 288.315 170.159 288.261C170.171 288.207 170.171 288.151 170.158 288.097L168.274 270.529C168.276 270.476 168.266 270.424 168.245 270.376C168.224 270.328 168.192 270.285 168.152 270.251C168.112 270.217 168.064 270.192 168.013 270.18C167.962 270.167 167.909 270.165 167.858 270.176ZM167.653 286.926L163.342 287.385C161.698 287.561 160.795 286.82 160.619 285.162L160.343 282.622C160.167 280.978 160.901 280.075 162.538 279.899L166.856 279.44C167.046 279.44 167.145 279.497 167.166 279.666L167.914 286.637C167.921 286.806 167.843 286.905 167.653 286.926Z" fill="#FFD501"/>
<path d="M149.005 271.397H147.707C147.652 271.387 147.596 271.391 147.543 271.407C147.49 271.424 147.442 271.452 147.402 271.491C147.362 271.529 147.332 271.576 147.314 271.629C147.296 271.681 147.29 271.737 147.298 271.792L147.079 289.431C147.071 289.485 147.076 289.54 147.093 289.593C147.109 289.645 147.138 289.692 147.176 289.732C147.214 289.771 147.261 289.802 147.313 289.82C147.364 289.839 147.419 289.846 147.474 289.84H148.765C148.82 289.849 148.876 289.845 148.929 289.829C148.982 289.813 149.03 289.784 149.07 289.746C149.11 289.707 149.14 289.66 149.158 289.608C149.176 289.555 149.182 289.5 149.174 289.445L149.4 271.806C149.408 271.752 149.403 271.696 149.386 271.644C149.37 271.592 149.341 271.544 149.303 271.504C149.265 271.465 149.218 271.435 149.166 271.416C149.115 271.397 149.06 271.391 149.005 271.397Z" fill="#FFD501"/>
<path d="M140.454 271.22L139.043 271.03C138.831 271.03 138.669 271.115 138.563 271.369L136.665 275.348L129.765 274.459L128.975 270.12C128.975 269.852 128.841 269.703 128.629 269.668L127.183 269.478C126.936 269.442 126.83 269.562 126.872 269.845L129.857 288.069C129.867 288.193 129.922 288.31 130.011 288.397C130.101 288.484 130.219 288.535 130.343 288.542L132.39 288.81C132.511 288.839 132.639 288.823 132.749 288.762C132.858 288.702 132.942 288.604 132.982 288.485L140.652 271.637C140.764 271.397 140.694 271.249 140.454 271.22ZM131.712 286.51H131.592L129.984 276.265L135.96 277.062L131.712 286.51Z" fill="#FFD501"/>
<path d="M120.445 267.827L111.569 265.287C111.518 265.265 111.463 265.254 111.408 265.257C111.352 265.26 111.298 265.276 111.25 265.303C111.202 265.331 111.161 265.369 111.131 265.415C111.1 265.462 111.081 265.514 111.075 265.57L110.786 266.586C110.759 266.637 110.745 266.694 110.745 266.752C110.745 266.81 110.759 266.867 110.785 266.918C110.811 266.97 110.849 267.015 110.896 267.049C110.942 267.083 110.997 267.105 111.054 267.115L118.017 269.097C118.201 269.147 118.271 269.26 118.222 269.422L113.862 284.732C113.839 284.783 113.829 284.838 113.832 284.893C113.835 284.949 113.85 285.003 113.878 285.051C113.905 285.099 113.944 285.14 113.99 285.17C114.036 285.201 114.089 285.22 114.144 285.226L115.386 285.586C115.436 285.609 115.492 285.619 115.547 285.616C115.602 285.613 115.656 285.597 115.704 285.57C115.752 285.542 115.793 285.504 115.824 285.458C115.854 285.412 115.873 285.359 115.88 285.304L120.72 268.314C120.739 268.264 120.748 268.211 120.744 268.157C120.74 268.104 120.725 268.052 120.698 268.005C120.672 267.958 120.635 267.918 120.591 267.887C120.548 267.857 120.497 267.836 120.445 267.827Z" fill="#FFD501"/>
<path d="M92.0885 256.707L89.0829 255.021C88.61 254.695 88.071 254.476 87.5042 254.382C86.9374 254.288 86.3568 254.32 85.8037 254.475C85.2506 254.631 84.7386 254.906 84.3042 255.283C83.8697 255.659 83.5236 256.126 83.2903 256.651L82.5847 257.879C82.5516 257.923 82.529 257.974 82.5189 258.028C82.5088 258.083 82.5113 258.139 82.5263 258.192C82.5413 258.245 82.5684 258.294 82.6055 258.335C82.6425 258.377 82.6885 258.408 82.7399 258.429L83.8618 259.057C83.9055 259.091 83.9569 259.115 84.0116 259.126C84.0663 259.137 84.1229 259.135 84.1766 259.12C84.2303 259.105 84.2797 259.077 84.3206 259.039C84.3616 259.001 84.3929 258.954 84.4121 258.902L85.0612 257.752C85.8702 256.298 86.978 255.964 88.3844 256.75L91.0161 258.231C92.4272 259.007 92.6882 260.122 91.8768 261.576L87.0861 270.127C86.2748 271.58 85.167 271.919 83.7842 271.136L81.2018 269.725C79.7907 268.935 79.5085 267.813 80.3199 266.359L80.962 265.209C80.9966 265.165 81.0204 265.114 81.0314 265.059C81.0423 265.005 81.0401 264.948 81.025 264.894C81.0098 264.841 80.9821 264.791 80.9442 264.75C80.9063 264.709 80.8592 264.678 80.8067 264.659L79.6849 264.024C79.6407 263.991 79.5894 263.968 79.535 263.958C79.4806 263.948 79.4246 263.95 79.3714 263.965C79.3181 263.98 79.2691 264.008 79.228 264.045C79.187 264.082 79.155 264.128 79.1346 264.179L78.429 265.414C78.119 265.894 77.9109 266.434 77.8174 266.998C77.724 267.562 77.7472 268.14 77.8858 268.695C78.0608 269.237 78.3434 269.738 78.7169 270.169C79.0903 270.599 79.5467 270.95 80.0589 271.199L83.0645 272.886C83.5446 273.191 84.0813 273.397 84.6425 273.49C85.2038 273.583 85.7781 273.562 86.3312 273.429C86.876 273.256 87.3801 272.974 87.813 272.6C88.2459 272.227 88.5987 271.769 88.85 271.256L93.7183 262.465C94.0447 261.992 94.2628 261.454 94.3571 260.888C94.4514 260.321 94.4196 259.741 94.264 259.189C94.1083 258.636 93.8326 258.125 93.4566 257.691C93.0805 257.257 92.6134 256.912 92.0885 256.679V256.707Z" fill="#FFD501"/>
<path d="M78.1467 249.349C78.0586 248.784 77.8568 248.242 77.5537 247.757C77.2505 247.272 76.8522 246.853 76.3828 246.527L73.6876 244.41C73.2704 244.017 72.7723 243.721 72.2283 243.541C71.6842 243.362 71.1075 243.304 70.5386 243.371C69.9697 243.438 69.4224 243.629 68.9352 243.931C68.448 244.232 68.0328 244.636 67.7186 245.115L61.5733 252.968C61.1819 253.385 60.8865 253.883 60.7078 254.426C60.529 254.97 60.4712 255.545 60.5384 256.113C60.6056 256.681 60.7962 257.228 61.0969 257.714C61.3975 258.201 61.8009 258.616 62.2788 258.93L64.974 261.047C65.3895 261.443 65.8873 261.742 66.4318 261.924C66.9764 262.106 67.5543 262.165 68.1244 262.098C68.6945 262.03 69.2427 261.838 69.7299 261.534C70.2171 261.231 70.6313 260.823 70.943 260.341L77.0883 252.496C77.4677 252.069 77.757 251.571 77.9388 251.03C78.1207 250.489 78.1914 249.918 78.1467 249.349ZM75.4021 251.289L69.3626 259.001C68.3372 260.313 67.1989 260.48 65.9477 259.502L63.6405 257.695C62.3706 256.698 62.2506 255.546 63.2807 254.238L69.3202 246.527C70.3433 245.214 71.4933 245.052 72.7563 246.047L75.0705 247.853C76.3216 248.836 76.4322 249.981 75.4021 251.289Z" fill="#FFD501"/>
<path d="M64.5508 236.585L63.7042 235.654C63.6719 235.612 63.6303 235.577 63.5826 235.554C63.5349 235.53 63.4823 235.518 63.429 235.518C63.3758 235.518 63.3232 235.53 63.2755 235.554C63.2277 235.577 63.1861 235.612 63.1539 235.654L51.7804 245.849L51.7028 245.765L57.072 234.843C57.1385 234.751 57.17 234.639 57.161 234.527C57.1519 234.414 57.1028 234.308 57.0226 234.229L56.1054 233.199C56.0268 233.115 55.9245 233.058 55.8124 233.034C55.7002 233.01 55.5834 233.021 55.4775 233.065L44.1252 237.298L44.0476 237.213L55.3999 227.018C55.4437 226.985 55.4792 226.943 55.5037 226.894C55.5282 226.845 55.541 226.791 55.541 226.736C55.541 226.681 55.5282 226.627 55.5037 226.578C55.4792 226.529 55.4437 226.487 55.3999 226.454L54.5532 225.515C54.5224 225.469 54.4814 225.431 54.4333 225.403C54.3853 225.376 54.3315 225.36 54.2762 225.356C54.2209 225.353 54.1655 225.362 54.1144 225.384C54.0634 225.405 54.0179 225.438 53.9817 225.48L40.8726 237.263C40.8287 237.296 40.7931 237.34 40.7687 237.389C40.7442 237.439 40.7314 237.493 40.7314 237.549C40.7314 237.604 40.7442 237.658 40.7687 237.708C40.7931 237.757 40.8287 237.801 40.8726 237.834L42.4248 239.563C42.4679 239.626 42.5323 239.671 42.6061 239.691C42.68 239.71 42.7584 239.702 42.827 239.669L54.8213 235.231L54.913 235.337L49.2122 246.788C49.1739 246.852 49.1587 246.928 49.1689 247.002C49.1792 247.077 49.2143 247.145 49.2686 247.197L50.8208 248.933C50.8544 248.976 50.8977 249.012 50.9472 249.037C50.9968 249.061 51.0513 249.074 51.1066 249.074C51.1619 249.074 51.2164 249.061 51.2659 249.037C51.3155 249.012 51.3587 248.976 51.3923 248.933L64.5367 237.129C64.5765 237.096 64.6088 237.055 64.6314 237.009C64.654 236.962 64.6664 236.912 64.6677 236.86C64.669 236.809 64.6593 236.758 64.6391 236.71C64.619 236.663 64.5889 236.62 64.5508 236.585Z" fill="#FFD501"/>
<path d="M49.6425 218.785L48.9934 217.698C48.9715 217.649 48.9385 217.606 48.8969 217.573C48.8553 217.539 48.8063 217.516 48.754 217.505C48.7017 217.494 48.6476 217.495 48.596 217.509C48.5444 217.523 48.4968 217.549 48.4572 217.585L35.341 225.431L35.2845 225.332L42.6434 215.638C42.7251 215.561 42.777 215.458 42.7899 215.347C42.8028 215.236 42.7759 215.124 42.714 215.031L42.0084 213.846C41.9498 213.749 41.8628 213.673 41.7592 213.627C41.6557 213.582 41.5407 213.57 41.4299 213.592L29.4355 215.553L29.3791 215.454L42.4741 207.623C42.5248 207.601 42.5698 207.568 42.6055 207.526C42.6411 207.484 42.6665 207.435 42.6795 207.381C42.6925 207.328 42.6929 207.272 42.6805 207.218C42.6681 207.165 42.6433 207.115 42.6081 207.072L41.9943 206.021C41.9717 205.971 41.9379 205.926 41.8955 205.891C41.8532 205.855 41.8033 205.829 41.7497 205.816C41.6961 205.802 41.6402 205.801 41.586 205.812C41.5318 205.823 41.4809 205.846 41.4369 205.88L26.2747 214.918C26.2234 214.939 26.1777 214.971 26.1413 215.013C26.1049 215.054 26.0787 215.104 26.065 215.158C26.0513 215.211 26.0503 215.267 26.0622 215.321C26.0741 215.375 26.0986 215.426 26.1335 215.468L27.333 217.465C27.3601 217.538 27.414 217.597 27.4835 217.631C27.553 217.665 27.633 217.672 27.7069 217.649L40.3292 215.581L40.4068 215.708L32.6458 225.854C32.5982 225.913 32.5723 225.987 32.5723 226.062C32.5723 226.138 32.5982 226.212 32.6458 226.27L33.8382 228.267C33.86 228.317 33.893 228.362 33.9347 228.398C33.9764 228.433 34.0257 228.459 34.0788 228.472C34.1319 228.486 34.1874 228.487 34.2411 228.476C34.2947 228.465 34.3452 228.442 34.3885 228.408L49.5578 219.335C49.6047 219.309 49.645 219.272 49.6757 219.228C49.7063 219.184 49.7265 219.134 49.7347 219.08C49.7429 219.027 49.7388 218.973 49.7228 218.922C49.7068 218.871 49.6794 218.824 49.6425 218.785Z" fill="#FFD501"/>
<path d="M37.2178 198.161C37.43 197.634 37.5337 197.069 37.5228 196.5C37.5119 195.932 37.3866 195.371 37.1543 194.852L36.0184 191.868C35.8483 191.327 35.5697 190.826 35.1997 190.397C34.8297 189.968 34.3761 189.618 33.8664 189.37C33.3364 189.157 32.7688 189.053 32.1977 189.065C31.6265 189.078 31.0638 189.205 30.5433 189.44L17.6035 194.379C17.5534 194.395 17.5073 194.421 17.4687 194.457C17.4301 194.492 17.3999 194.536 17.3803 194.585C17.3607 194.633 17.3522 194.686 17.3554 194.738C17.3586 194.79 17.3735 194.841 17.3989 194.887L17.8646 196.101C17.9492 196.334 18.1186 196.397 18.3726 196.298L31.1995 191.409C32.7611 190.807 33.8265 191.261 34.3956 192.771L35.3622 195.29C35.9267 196.776 35.4304 197.815 33.8735 198.408L21.0466 203.305C20.9928 203.317 20.9427 203.342 20.9001 203.378C20.8575 203.413 20.8237 203.458 20.8012 203.508C20.7787 203.559 20.7681 203.614 20.7703 203.669C20.7724 203.724 20.7873 203.778 20.8138 203.827L21.2724 205.033C21.2852 205.087 21.3102 205.137 21.3455 205.18C21.3808 205.222 21.4254 205.256 21.4759 205.279C21.5264 205.301 21.5814 205.312 21.6367 205.31C21.6919 205.307 21.7459 205.292 21.7945 205.266L34.706 200.327C35.2502 200.156 35.7538 199.876 36.1857 199.504C36.6177 199.131 36.9689 198.674 37.2178 198.161Z" fill="#FFD501"/>
<path d="M32.279 180.233L32.018 178.998C32.0136 178.943 31.9966 178.89 31.9683 178.842C31.94 178.795 31.9011 178.755 31.8547 178.725C31.8083 178.695 31.7556 178.676 31.7007 178.669C31.6458 178.663 31.5902 178.669 31.5382 178.688L18.0692 181.51V181.397L29.9648 170.849C30.0551 170.766 30.1246 170.662 30.1675 170.547C30.2104 170.432 30.2255 170.308 30.2117 170.186L29.993 169.149C29.9897 169.093 29.9734 169.039 29.9456 168.991C29.9177 168.942 29.8789 168.901 29.8324 168.87C29.7859 168.84 29.7328 168.82 29.6774 168.813C29.622 168.806 29.5658 168.813 29.5132 168.831L12.2202 172.43C12.1653 172.433 12.112 172.449 12.0644 172.477C12.0168 172.504 11.9761 172.542 11.9454 172.588C11.9147 172.634 11.895 172.686 11.8876 172.74C11.8802 172.795 11.8853 172.85 11.9027 172.902L12.1638 174.144C12.167 174.199 12.1831 174.252 12.2106 174.3C12.2381 174.347 12.2763 174.388 12.3223 174.418C12.3682 174.448 12.4205 174.467 12.475 174.473C12.5296 174.48 12.5849 174.473 12.6365 174.455L26.1125 171.632V171.745L14.1181 182.329C14.0499 182.39 14.0014 182.471 13.9788 182.56C13.9562 182.649 13.9605 182.743 13.9911 182.829L14.224 183.98C14.2283 184.035 14.2453 184.088 14.2736 184.135C14.3019 184.183 14.3408 184.223 14.3872 184.253C14.4336 184.283 14.4863 184.302 14.5412 184.309C14.5961 184.315 14.6517 184.309 14.7037 184.29L32.0038 180.699C32.0541 180.689 32.1018 180.669 32.1438 180.64C32.1857 180.61 32.2208 180.572 32.2469 180.528C32.2729 180.484 32.2892 180.435 32.2948 180.384C32.3003 180.333 32.2949 180.282 32.279 180.233Z" fill="#FFD501"/>
<path d="M29.0123 160.365L28.9276 159.081C28.93 159.025 28.9197 158.97 28.8974 158.92C28.8752 158.869 28.8416 158.825 28.7993 158.789C28.7571 158.754 28.7072 158.728 28.6536 158.715C28.6 158.702 28.544 158.702 28.4902 158.714L10.8514 160.125C10.7966 160.121 10.7417 160.13 10.6911 160.152C10.6405 160.173 10.5956 160.206 10.56 160.248C10.5244 160.29 10.499 160.339 10.4859 160.393C10.4728 160.446 10.4723 160.502 10.4845 160.555L10.5904 161.846C10.5868 161.901 10.5961 161.956 10.6174 162.007C10.6388 162.057 10.6717 162.102 10.7135 162.138C10.7553 162.173 10.8049 162.199 10.8582 162.212C10.9115 162.225 10.9672 162.225 11.0207 162.213L28.6595 160.802C28.7139 160.804 28.7679 160.793 28.8174 160.77C28.8668 160.747 28.9103 160.713 28.9445 160.671C28.9786 160.629 29.0025 160.579 29.0143 160.526C29.026 160.473 29.0254 160.417 29.0123 160.365Z" fill="#FFD501"/>
<path d="M11.839 151.587L11.9378 147.685C11.9378 147.488 12.0295 147.396 12.1989 147.403L28.1725 147.805C28.2265 147.814 28.2818 147.811 28.3341 147.795C28.3864 147.779 28.4343 147.751 28.474 147.713C28.5137 147.676 28.5441 147.629 28.5628 147.578C28.5815 147.526 28.588 147.471 28.5818 147.417L28.617 146.119C28.6261 146.065 28.6226 146.01 28.6066 145.957C28.5907 145.905 28.5628 145.857 28.5252 145.817C28.4875 145.778 28.4412 145.747 28.3898 145.729C28.3384 145.71 28.2833 145.703 28.229 145.71L12.2553 145.343C12.086 145.343 12.0013 145.244 12.0013 145.046L12.1072 141.138C12.1169 141.082 12.1139 141.024 12.0981 140.97C12.0824 140.915 12.0544 140.865 12.0163 140.823C11.9782 140.78 11.931 140.747 11.8783 140.726C11.8256 140.705 11.7687 140.696 11.712 140.7H10.6819C10.4138 140.7 10.2727 140.834 10.2657 141.124L9.99756 151.608C9.99756 151.89 10.1246 152.038 10.3927 152.045H11.4298C11.6909 152.017 11.832 151.876 11.839 151.587Z" fill="#FFD501"/>
<path d="M11.2889 133.743L23.1492 130.159L29.5908 131.232C29.6427 131.25 29.6982 131.255 29.7525 131.247C29.8069 131.239 29.8586 131.219 29.9035 131.187C29.9483 131.155 29.9849 131.113 30.0103 131.065C30.0357 131.016 30.0491 130.962 30.0495 130.907L30.2611 129.63C30.2788 129.578 30.284 129.522 30.2762 129.467C30.2684 129.413 30.2479 129.361 30.2164 129.315C30.1848 129.27 30.143 129.233 30.0944 129.207C30.0458 129.18 29.9918 129.166 29.9366 129.164L23.4949 128.113L13.4055 120.874C13.1445 120.677 12.9893 120.733 12.9399 121.058L12.7 122.673C12.6829 122.785 12.7063 122.899 12.7658 122.994C12.8253 123.09 12.9171 123.161 13.0245 123.195L20.9549 128.628V128.769L11.6981 131.415C11.4159 131.486 11.2607 131.627 11.2254 131.831L10.9643 133.419C10.955 133.467 10.9564 133.517 10.9686 133.564C10.9808 133.612 11.0035 133.656 11.0349 133.694C11.071 133.72 11.1124 133.739 11.1563 133.747C11.2003 133.756 11.2455 133.754 11.2889 133.743Z" fill="#FFD501"/>
<path d="M24.2144 89.6045L40.0963 97.3655C40.1386 97.3974 40.1878 97.4189 40.24 97.4283C40.2921 97.4377 40.3457 97.4347 40.3965 97.4196C40.4473 97.4045 40.4938 97.3777 40.5324 97.3414C40.5709 97.305 40.6004 97.2601 40.6184 97.2103L40.9571 96.5048C40.9883 96.4594 41.0085 96.4073 41.016 96.3528C41.0235 96.2982 41.0182 96.2426 41.0003 96.1905C40.9825 96.1384 40.9527 96.0911 40.9133 96.0526C40.874 96.0141 40.8261 95.9853 40.7736 95.9686L24.8917 88.2075C24.8459 88.1763 24.7933 88.1564 24.7384 88.1494C24.6834 88.1423 24.6275 88.1483 24.5753 88.1668C24.5231 88.1854 24.476 88.216 24.4378 88.2561C24.3996 88.2963 24.3714 88.3449 24.3555 88.398L24.0168 89.1035C23.9039 89.3364 23.9886 89.5057 24.2144 89.6045Z" fill="#FFD501"/>
<path d="M221.395 108.838H194.16C193.147 108.838 192.326 109.659 192.326 110.672V135.825C192.326 136.838 193.147 137.66 194.16 137.66H221.395C222.408 137.66 223.229 136.838 223.229 135.825V110.672C223.229 109.659 222.408 108.838 221.395 108.838Z" fill="#FFD501"/>
<path d="M137.357 108.838H79.2333C78.9387 108.838 78.6485 108.909 78.3869 109.044C78.1254 109.18 77.9001 109.376 77.7301 109.616C77.5601 109.857 77.4502 110.135 77.4098 110.427C77.3693 110.718 77.3995 111.016 77.4976 111.293L86.4793 136.432C86.6062 136.786 86.8385 137.093 87.145 137.311C87.4515 137.53 87.8175 137.649 88.1938 137.653H135.466V211.227C135.466 211.469 135.513 211.708 135.606 211.931C135.699 212.154 135.834 212.357 136.005 212.527C136.177 212.697 136.38 212.832 136.603 212.924C136.826 213.016 137.066 213.063 137.307 213.062H162.453C162.939 213.062 163.406 212.869 163.75 212.525C164.094 212.18 164.287 211.714 164.287 211.227V135.818V110.672C164.287 110.431 164.24 110.192 164.147 109.969C164.054 109.746 163.919 109.543 163.748 109.373C163.577 109.202 163.373 109.067 163.15 108.976C162.927 108.884 162.687 108.837 162.446 108.838H137.357Z" fill="#FFD501"/>
</svg>
