<svg width="108" height="82" viewBox="0 0 108 82" fill="none" xmlns="http://www.w3.org/2000/svg">
<path d="M0.845419 44.7187C1.1317 45.2018 1.52086 45.5507 2.0129 45.7654C2.50494 45.9801 3.01935 46.0875 3.55613 46.0875C3.91398 46.0875 4.25393 45.9891 4.576 45.7922C4.89806 45.5954 5.18434 45.3494 5.43483 45.0542C5.68533 44.75 5.88215 44.419 6.02529 44.0612C6.17737 43.6944 6.25341 43.3455 6.25341 43.0144C6.25341 42.925 6.24894 42.831 6.23999 42.7326C6.23999 42.6342 6.2221 42.5448 6.18632 42.4643C6.15053 42.3837 6.09685 42.3211 6.02529 42.2764C5.96266 42.2227 5.8732 42.1959 5.7569 42.1959C5.56903 42.1959 5.42141 42.2853 5.31406 42.4643C5.2246 42.7147 5.12619 42.9787 5.01883 43.256C4.92043 43.5244 4.79518 43.7749 4.64309 44.0075C4.49101 44.2311 4.30314 44.419 4.07948 44.5711C3.85582 44.7142 3.58296 44.7858 3.2609 44.7858C3.22512 44.7858 3.17144 44.7858 3.09987 44.7858C3.03724 44.7769 3.00146 44.7724 2.99251 44.7724C2.69729 44.7008 2.44679 44.58 2.24103 44.4101C2.04421 44.2311 1.88318 44.0298 1.75793 43.8062C1.63269 43.5736 1.53428 43.3231 1.46271 43.0547C1.40008 42.7863 1.35088 42.5179 1.3151 42.2495C1.30615 42.2316 1.2972 42.1869 1.28826 42.1153C1.27931 42.0438 1.27036 41.999 1.26142 41.9812V40.3037C1.26142 40.0622 1.29273 39.8206 1.35535 39.5791C1.41798 39.3286 1.50744 39.0915 1.62374 38.8679C1.74004 38.6353 1.87871 38.4206 2.03974 38.2237C2.20077 38.0269 2.3797 37.8614 2.57651 37.7272C2.59441 37.7183 2.6123 37.7093 2.63019 37.7004C2.65703 37.6825 2.67492 37.6735 2.68387 37.6735H3.56955C3.57849 37.6735 3.60086 37.6825 3.63664 37.7004C3.68137 37.7093 3.71268 37.7183 3.73058 37.7272C3.91845 37.8167 4.07501 37.9061 4.20025 37.9956C4.3255 38.0851 4.42838 38.188 4.5089 38.3043C4.59836 38.4116 4.66993 38.5369 4.72361 38.68C4.77729 38.8231 4.83096 38.9976 4.88464 39.2034C4.91148 39.2839 4.92937 39.4002 4.93832 39.5523C4.95621 39.6954 4.98305 39.8385 5.01883 39.9817C5.06357 40.1248 5.12619 40.2501 5.20671 40.3574C5.28722 40.4648 5.39905 40.5184 5.54219 40.5184C5.6227 40.5184 5.69875 40.4871 5.77032 40.4245C5.85083 40.3619 5.91793 40.2858 5.97161 40.1964C6.02528 40.1069 6.06554 40.0175 6.09238 39.928C6.12817 39.8296 6.14606 39.7446 6.14606 39.673V38.0493C6.14606 38.0224 6.13711 37.9688 6.11922 37.8883C6.11027 37.8077 6.10133 37.7541 6.09238 37.7272V37.7004C6.09238 37.602 6.10133 37.508 6.11922 37.4186C6.14606 37.3202 6.15948 37.2218 6.15948 37.1234C6.15948 37.0339 6.15053 36.9444 6.13264 36.855C6.12369 36.7566 6.09685 36.6671 6.05212 36.5866C6.01634 36.5061 5.96266 36.439 5.89109 36.3853C5.81952 36.3316 5.73006 36.3048 5.6227 36.3048C5.51535 36.3048 5.42589 36.3361 5.35432 36.3987C5.28275 36.4613 5.22012 36.5284 5.16645 36.6C5.12172 36.6716 5.07698 36.7387 5.03225 36.8013C4.98752 36.8639 4.93832 36.8952 4.88464 36.8952H4.83096C4.51785 36.7163 4.23157 36.5732 3.97213 36.4658C3.71269 36.3585 3.41299 36.3048 3.07303 36.3048C2.98357 36.3048 2.88516 36.3048 2.7778 36.3048C2.67045 36.2958 2.56757 36.3137 2.46916 36.3584C2.43337 36.3763 2.37522 36.4077 2.29471 36.4524C2.21419 36.4882 2.1292 36.5284 2.03974 36.5732C1.95922 36.6179 1.87871 36.6626 1.79819 36.7074C1.71768 36.7431 1.65953 36.77 1.62374 36.7879C1.56112 36.8415 1.4806 36.9265 1.38219 37.0428C1.28378 37.1502 1.18538 37.2665 1.08697 37.3917C0.988558 37.517 0.899096 37.6422 0.81858 37.7675C0.74701 37.8838 0.702279 37.9777 0.684386 38.0493L0.107355 39.9414C0.0984085 40.0488 0.0849892 40.1695 0.0670967 40.3037C0.0492043 40.4379 0.0268387 40.5632 0 40.6795V42.0885C0.0626236 42.3211 0.0984085 42.5492 0.107355 42.7729C0.116301 42.9966 0.169978 43.2247 0.268387 43.4573C0.286279 43.511 0.322064 43.5959 0.375742 43.7123C0.429419 43.8286 0.483096 43.9538 0.536774 44.088C0.599397 44.2222 0.657548 44.3519 0.711225 44.4772C0.773849 44.5935 0.81858 44.674 0.845419 44.7187Z" fill="black"/>
<path d="M8.56532 42.6521C8.56532 42.8489 8.59215 43.086 8.64583 43.3633C8.70845 43.6407 8.79344 43.918 8.9008 44.1953C9.00815 44.4727 9.1334 44.7321 9.27654 44.9737C9.42863 45.2152 9.59413 45.3941 9.77306 45.5104C9.782 45.5194 9.81779 45.5418 9.88041 45.5775C9.95198 45.6044 10.0236 45.6402 10.0951 45.6849C10.1756 45.7207 10.2517 45.7609 10.3232 45.8057C10.4038 45.8415 10.4664 45.8683 10.5111 45.8862C10.5648 45.9041 10.6543 45.922 10.7795 45.9399C10.9048 45.9578 10.9897 45.9712 11.0345 45.9801C11.1329 46.007 11.2089 46.0338 11.2626 46.0606C11.3163 46.0964 11.3655 46.1277 11.4102 46.1546C11.4639 46.1814 11.5265 46.2038 11.5981 46.2217C11.6697 46.2396 11.7725 46.2485 11.9067 46.2485C12.1751 46.2485 12.4435 46.1769 12.7119 46.0338C12.9892 45.8907 13.2442 45.7117 13.4768 45.497C13.7094 45.2734 13.9107 45.0273 14.0807 44.759C14.2596 44.4906 14.3848 44.2356 14.4564 43.9941C14.4654 43.9404 14.4877 43.842 14.5235 43.6988C14.5593 43.5557 14.5951 43.4081 14.6309 43.256C14.6756 43.095 14.7114 42.9473 14.7382 42.8132C14.774 42.67 14.8008 42.5716 14.8187 42.5179C14.8187 42.5 14.8187 42.4553 14.8187 42.3837C14.8277 42.3032 14.8321 42.2495 14.8321 42.2227C14.8321 41.9901 14.8008 41.7664 14.7382 41.5517C14.6845 41.3281 14.6085 41.1134 14.5101 40.9076C14.4206 40.6929 14.3177 40.4871 14.2014 40.2903C14.0941 40.0846 13.9867 39.8788 13.8794 39.673C13.8704 39.673 13.8615 39.6686 13.8525 39.6596C13.8436 39.6417 13.8346 39.6283 13.8257 39.6194C13.5126 39.351 13.1995 39.1363 12.8863 38.9752C12.5732 38.8052 12.202 38.7203 11.7725 38.7203C11.2089 38.7203 10.7214 38.8321 10.3098 39.0557C9.90725 39.2704 9.57624 39.5612 9.3168 39.928C9.05736 40.2948 8.86501 40.7153 8.73977 41.1894C8.62347 41.6636 8.56532 42.1511 8.56532 42.6521ZM9.71938 42.6655C9.71938 42.415 9.72832 42.178 9.74622 41.9543C9.77306 41.7307 9.82226 41.5204 9.89383 41.3236C9.97435 41.1178 10.0772 40.9255 10.2025 40.7466C10.3367 40.5677 10.5111 40.4021 10.7258 40.2501C10.7795 40.2143 10.86 40.1651 10.9674 40.1024C11.0747 40.0309 11.1329 39.9951 11.1418 39.9951H11.9872C12.0767 40.0488 12.1841 40.098 12.3093 40.1427C12.4435 40.1874 12.5688 40.2411 12.6851 40.3037C12.8103 40.3574 12.9221 40.4245 13.0205 40.505C13.1279 40.5766 13.2039 40.6705 13.2487 40.7868C13.3471 41.0463 13.4231 41.2968 13.4768 41.5383C13.5394 41.7709 13.5707 42.0259 13.5707 42.3032C13.5707 42.7774 13.5081 43.1978 13.3829 43.5646C13.2576 43.9225 13.0026 44.258 12.618 44.5711C12.4569 44.6337 12.3093 44.6695 12.1751 44.6784C12.0499 44.6784 11.8978 44.6784 11.7189 44.6784C11.6562 44.6784 11.5623 44.6784 11.4371 44.6784C11.3208 44.6784 11.2581 44.674 11.2492 44.665C11.2045 44.665 11.1508 44.6606 11.0882 44.6516C11.0255 44.6427 10.9629 44.6337 10.9003 44.6248C10.8466 44.6158 10.7929 44.6069 10.7392 44.5979C10.6945 44.58 10.6722 44.5711 10.6722 44.5711L10.0414 43.9404C9.98777 43.8867 9.93856 43.8062 9.89383 43.6988C9.85804 43.5825 9.82673 43.4618 9.79989 43.3365C9.77306 43.2113 9.75069 43.086 9.7328 42.9608C9.72385 42.8355 9.71938 42.7371 9.71938 42.6655Z" fill="black"/>
<path d="M19.7877 38.8008C19.7071 38.8008 19.6177 38.8052 19.5193 38.8142C19.4298 38.8142 19.3359 38.8231 19.2375 38.841C19.1391 38.85 19.0451 38.8679 18.9557 38.8947C18.8751 38.9215 18.808 38.9618 18.7544 39.0155L17.654 40.1293C17.654 40.1293 17.645 40.1427 17.6271 40.1695C17.6182 40.1964 17.6093 40.2143 17.6003 40.2232C17.5914 40.2501 17.569 40.3127 17.5332 40.4111C17.5064 40.5095 17.4751 40.6169 17.4393 40.7332C17.4124 40.8495 17.3811 40.9568 17.3453 41.0552C17.3185 41.1447 17.3006 41.2028 17.2917 41.2297C17.2738 41.2744 17.2425 41.3504 17.1977 41.4578C17.153 41.5562 17.1306 41.6367 17.1306 41.6993V43.3231C17.1306 43.341 17.1351 43.3812 17.144 43.4439C17.1619 43.4975 17.1798 43.5557 17.1977 43.6183C17.2246 43.672 17.2469 43.7257 17.2648 43.7793C17.2827 43.8241 17.2917 43.8509 17.2917 43.8599C17.399 44.1551 17.5422 44.4324 17.7211 44.6919C17.909 44.9513 18.1192 45.1794 18.3518 45.3762C18.5933 45.5641 18.8573 45.7162 19.1435 45.8325C19.4388 45.9488 19.7519 46.007 20.0829 46.007C20.3065 46.007 20.4989 45.9667 20.6599 45.8862C20.8299 45.8057 21.0178 45.7073 21.2235 45.591C21.2862 45.5552 21.3309 45.5239 21.3577 45.497C21.3846 45.4702 21.4025 45.4478 21.4114 45.4299C21.4293 45.412 21.4472 45.3986 21.4651 45.3897C21.4919 45.3718 21.5277 45.3628 21.5724 45.3628C21.5814 45.3628 21.5948 45.3673 21.6127 45.3762C21.6306 45.3762 21.644 45.3762 21.6529 45.3762C21.8498 45.6089 22.0555 45.7565 22.2702 45.8191C22.4939 45.8817 22.7578 45.913 23.062 45.913C23.1962 45.913 23.3393 45.9086 23.4914 45.8996C23.6524 45.8817 23.8 45.8459 23.9342 45.7922C24.0684 45.7386 24.1758 45.6581 24.2563 45.5507C24.3458 45.4433 24.3905 45.3002 24.3905 45.1213C24.3905 44.9602 24.3279 44.8439 24.2026 44.7724C24.0863 44.7008 23.9477 44.6561 23.7866 44.6382C23.6256 44.6113 23.4601 44.6069 23.2901 44.6248C23.1291 44.6337 23.0038 44.6382 22.9144 44.6382L22.7802 44.5308V41.4846L22.6728 41.2297V37.0831C22.6728 37.0115 22.6549 36.9355 22.6191 36.855C22.5834 36.7744 22.5342 36.7029 22.4715 36.6403C22.4179 36.5687 22.3552 36.5105 22.2837 36.4658C22.2121 36.4211 22.1405 36.3987 22.0689 36.3987H20.4452C20.32 36.3987 20.2171 36.439 20.1366 36.5195C20.056 36.5911 20.0158 36.6895 20.0158 36.8147C20.0158 37.0741 20.0963 37.2486 20.2573 37.3381C20.4273 37.4275 20.6107 37.4857 20.8075 37.5125C21.0043 37.5304 21.1833 37.5483 21.3443 37.5662C21.5143 37.5841 21.5993 37.6512 21.5993 37.7675V39.0155L21.4919 39.3375C21.4919 39.3375 21.4785 39.342 21.4517 39.351C21.4338 39.351 21.4203 39.351 21.4114 39.351C21.2862 39.351 21.1967 39.3241 21.143 39.2704C21.0893 39.2078 21.0133 39.1407 20.9149 39.0692C20.7449 38.9618 20.5615 38.8902 20.3647 38.8544C20.1679 38.8187 19.9755 38.8008 19.7877 38.8008ZM18.2847 42.3032C18.2847 42.0796 18.3071 41.8291 18.3518 41.5517C18.4055 41.2744 18.4905 41.0194 18.6068 40.7868C18.732 40.5542 18.893 40.3574 19.0899 40.1964C19.2956 40.0354 19.5461 39.9548 19.8413 39.9548C20.1455 39.9548 20.4094 40.0354 20.6331 40.1964C20.8567 40.3574 21.0401 40.5587 21.1833 40.8003C21.3264 41.0418 21.4293 41.3057 21.4919 41.592C21.5635 41.8783 21.5993 42.1511 21.5993 42.4106C21.5993 42.6253 21.568 42.8713 21.5053 43.1486C21.4427 43.417 21.3443 43.672 21.2101 43.9135C21.0849 44.1461 20.9238 44.3474 20.727 44.5174C20.5391 44.6784 20.3155 44.759 20.056 44.759C19.734 44.759 19.4566 44.6829 19.224 44.5308C19.0004 44.3787 18.817 44.1819 18.6739 43.9404C18.5397 43.6988 18.4413 43.4349 18.3786 43.1486C18.316 42.8534 18.2847 42.5716 18.2847 42.3032Z" fill="black"/>
<path d="M26.6788 45.4031C26.6788 45.5552 26.7235 45.6849 26.813 45.7922C26.9114 45.8996 27.0411 45.9533 27.2022 45.9533H31.7782C31.9302 45.9533 32.0376 45.8907 32.1002 45.7654C32.1718 45.6402 32.2076 45.5149 32.2076 45.3897C32.2076 45.327 32.1942 45.251 32.1673 45.1615C32.1494 45.0721 32.1136 44.9871 32.06 44.9066C32.0152 44.8261 31.9571 44.759 31.8855 44.7053C31.8229 44.6427 31.7513 44.6113 31.6708 44.6113H30.2484L30.1678 44.5308V39.5388C30.1678 39.351 30.0828 39.2078 29.9129 39.1094C29.7518 39.011 29.5953 38.9618 29.4432 38.9618C29.3358 38.9618 29.2285 38.9707 29.1211 38.9886C29.0227 39.0065 28.9198 39.0155 28.8125 39.0155C28.6604 39.0155 28.5083 39.0065 28.3562 38.9886C28.2131 38.9707 28.0655 38.9618 27.9134 38.9618C27.815 38.9618 27.7031 38.9707 27.5779 38.9886C27.4616 38.9976 27.3498 39.0244 27.2424 39.0692C27.144 39.1049 27.059 39.1631 26.9875 39.2436C26.9159 39.3241 26.8801 39.436 26.8801 39.5791C26.8801 39.6507 26.889 39.7312 26.9069 39.8206C26.9338 39.9012 26.9696 39.9772 27.0143 40.0488C27.059 40.1203 27.1127 40.183 27.1753 40.2366C27.2469 40.2814 27.3274 40.3037 27.4169 40.3037H28.9869V43.2694C28.978 43.2873 28.969 43.332 28.9601 43.4036C28.9511 43.4752 28.9422 43.5199 28.9333 43.5378C28.9333 43.5736 28.9288 43.6362 28.9198 43.7257C28.9198 43.8151 28.9154 43.9091 28.9064 44.0075C28.8975 44.1059 28.8885 44.1998 28.8796 44.2893C28.8796 44.3787 28.8796 44.4414 28.8796 44.4772L28.7856 44.6113H27.3095C27.0948 44.6113 26.9338 44.7008 26.8264 44.8797C26.728 45.0497 26.6788 45.2242 26.6788 45.4031ZM28.4636 37.3112C28.4636 37.6064 28.5396 37.8614 28.6917 38.0761C28.8527 38.2908 29.0853 38.3982 29.3895 38.3982C29.64 38.3982 29.8637 38.3221 30.0605 38.1701C30.2573 38.009 30.3557 37.7943 30.3557 37.5259C30.3557 37.3917 30.3289 37.2575 30.2752 37.1234C30.2305 36.9892 30.1634 36.8684 30.0739 36.761C29.9934 36.6447 29.8905 36.5553 29.7653 36.4926C29.649 36.4211 29.5192 36.3853 29.3761 36.3853C29.1077 36.3853 28.8885 36.4748 28.7185 36.6537C28.5486 36.8326 28.4636 37.0518 28.4636 37.3112Z" fill="black"/>
<path d="M34.4971 45.2823C34.4971 45.4791 34.5329 45.6223 34.6045 45.7117C34.6761 45.8012 34.77 45.8638 34.8863 45.8996C35.0116 45.9354 35.1502 45.9578 35.3023 45.9667C35.4544 45.9667 35.6065 45.9756 35.7586 45.9935C35.7765 45.9935 35.8212 46.0025 35.8928 46.0204C35.9643 46.0383 36.0091 46.0472 36.027 46.0472H37.1273C37.3063 46.0293 37.4628 45.9756 37.597 45.8862C37.7402 45.7878 37.8117 45.6446 37.8117 45.4568C37.8117 45.2242 37.7625 45.0631 37.6641 44.9737C37.5746 44.8842 37.4628 44.8216 37.3286 44.7858C37.2034 44.75 37.0781 44.7276 36.9529 44.7187C36.8366 44.7008 36.7516 44.6516 36.6979 44.5711V44.3698C36.6979 44.2714 36.6979 44.1909 36.6979 44.1283C36.7069 44.0656 36.7337 43.9896 36.7784 43.9001V42.3703C36.7784 42.3703 36.8008 42.3301 36.8455 42.2495C36.8992 42.169 36.9395 42.1064 36.9663 42.0617C36.9753 42.0438 36.9931 42.0169 37.02 41.9812C37.0468 41.9364 37.0647 41.9096 37.0737 41.9006C37.1721 41.7307 37.2839 41.5517 37.4091 41.3639C37.5433 41.167 37.691 40.9881 37.852 40.8271C38.013 40.6661 38.1875 40.5319 38.3753 40.4245C38.5722 40.3172 38.7824 40.2635 39.006 40.2635C39.1402 40.2635 39.27 40.2769 39.3952 40.3037C39.5205 40.3216 39.6233 40.3977 39.7038 40.5319C39.7038 40.5587 39.7038 40.6079 39.7038 40.6795C39.7128 40.751 39.7173 40.8271 39.7173 40.9076C39.7262 40.9792 39.7307 41.0507 39.7307 41.1223C39.7396 41.1939 39.7441 41.2431 39.7441 41.2699C39.7531 41.2878 39.762 41.3415 39.7709 41.431C39.7888 41.5115 39.7978 41.5607 39.7978 41.5786V41.6323C39.7978 41.6591 39.7844 41.7128 39.7575 41.7933C39.7396 41.8738 39.7262 41.9275 39.7173 41.9543V43.9941L39.5965 44.5174L39.5428 44.5711C39.2565 44.589 39.015 44.6471 38.8182 44.7455C38.6303 44.835 38.5364 45.0497 38.5364 45.3897C38.5364 45.6759 38.6795 45.8593 38.9658 45.9399C39.0374 45.9399 39.1626 45.9443 39.3415 45.9533C39.5205 45.9622 39.7083 45.9712 39.9051 45.9801C40.1109 45.9801 40.3032 45.9846 40.4822 45.9935C40.6611 45.9935 40.7863 45.9935 40.8579 45.9935H41.0592C41.2739 45.9935 41.4484 45.9578 41.5826 45.8862C41.7257 45.8057 41.7973 45.6491 41.7973 45.4165C41.7973 45.1302 41.6989 44.9289 41.502 44.8126C41.3142 44.6963 41.0995 44.6158 40.8579 44.5711L40.8042 44.5174C40.8042 44.5174 40.7998 44.495 40.7908 44.4503C40.7908 44.3966 40.7908 44.3564 40.7908 44.3295C40.7908 44.2311 40.7908 44.1417 40.7908 44.0612C40.7998 43.9806 40.8221 43.8912 40.8579 43.7928V40.4782C40.8579 40.2724 40.8087 40.0711 40.7103 39.8743C40.6119 39.6775 40.4822 39.503 40.3211 39.351C40.1691 39.1989 39.9901 39.0781 39.7844 38.9886C39.5876 38.8902 39.3907 38.841 39.1939 38.841C38.8719 38.841 38.5677 38.9305 38.2814 39.1094C38.0041 39.2794 37.7402 39.4538 37.4897 39.6328C37.436 39.6686 37.3823 39.7222 37.3286 39.7938C37.2749 39.8654 37.2213 39.9369 37.1676 40.0085C37.1139 40.0801 37.0602 40.1427 37.0066 40.1964C36.9618 40.2501 36.9126 40.2769 36.859 40.2769C36.859 40.2769 36.85 40.2769 36.8321 40.2769C36.8232 40.2769 36.8142 40.2724 36.8053 40.2635C36.7874 40.0309 36.7605 39.8385 36.7248 39.6864C36.689 39.5344 36.6263 39.4136 36.5369 39.3241C36.4474 39.2257 36.3222 39.1497 36.1611 39.096C36.0091 39.0423 35.8033 38.9976 35.5439 38.9618C35.5439 38.9529 35.5125 38.9484 35.4499 38.9484C35.3962 38.9484 35.356 38.9484 35.3291 38.9484C35.1323 38.9484 34.9489 38.9931 34.779 39.0826C34.6179 39.1631 34.5374 39.3197 34.5374 39.5523C34.5374 39.767 34.5911 39.928 34.6984 40.0354C34.8147 40.1338 34.9355 40.2098 35.0608 40.2635C35.195 40.3172 35.3157 40.3619 35.4231 40.3977C35.5394 40.4245 35.5975 40.4692 35.5975 40.5319V43.6317C35.5707 43.7659 35.5483 43.918 35.5304 44.088C35.5215 44.249 35.5081 44.3922 35.4902 44.5174L35.4365 44.5711C35.1681 44.589 34.9445 44.6382 34.7655 44.7187C34.5866 44.7903 34.4971 44.9781 34.4971 45.2823Z" fill="black"/>
<path d="M44.1108 46.6645C44.1108 47.076 44.2093 47.4026 44.4061 47.6441C44.6118 47.8946 44.8981 48.0825 45.2649 48.2077C45.3365 48.2256 45.3946 48.2569 45.4394 48.3017C45.493 48.3553 45.5557 48.3956 45.6272 48.4224C46.003 48.5566 46.3698 48.6416 46.7276 48.6774C47.0855 48.7132 47.4657 48.7311 47.8683 48.7311C48.2261 48.7311 48.5884 48.6908 48.9552 48.6103C49.331 48.5387 49.6709 48.4135 49.9751 48.2346C50.2793 48.0646 50.5253 47.832 50.7132 47.5368C50.901 47.2505 50.995 46.8926 50.995 46.4632C50.995 46.2932 50.9726 46.1412 50.9279 46.007C50.8831 45.8728 50.8205 45.752 50.74 45.6446C50.6595 45.5283 50.5656 45.421 50.4582 45.3226C50.3508 45.2242 50.2301 45.1168 50.0959 45.0005C50.0332 44.9468 49.9885 44.9066 49.9617 44.8797C49.9348 44.8529 49.9125 44.8305 49.8946 44.8126C49.8767 44.7947 49.8499 44.7769 49.8141 44.759C49.7872 44.7411 49.7425 44.7187 49.6799 44.6919C49.5278 44.6382 49.3489 44.6113 49.1431 44.6113C48.9463 44.6113 48.7897 44.6024 48.6734 44.5845C48.6555 44.5845 48.6063 44.5756 48.5258 44.5577C48.4542 44.5398 48.3737 44.5219 48.2843 44.504C48.1948 44.4861 48.1098 44.4682 48.0293 44.4503C47.9577 44.4324 47.913 44.4235 47.8951 44.4235H47.4254C47.1123 44.4235 46.8081 44.4682 46.5129 44.5577C46.2177 44.6471 45.9135 44.6919 45.6004 44.6919C45.5557 44.6919 45.5109 44.674 45.4662 44.6382C45.4215 44.6024 45.3902 44.5666 45.3723 44.5308V44.343C45.3723 44.1998 45.3991 44.0746 45.4528 43.9672C45.5154 43.8509 45.6317 43.7928 45.8017 43.7928C45.9448 43.7928 46.079 43.8151 46.2043 43.8599C46.3295 43.8956 46.4503 43.9359 46.5666 43.9806C46.6918 44.0254 46.8171 44.0701 46.9423 44.1148C47.0676 44.1506 47.2018 44.1685 47.3449 44.1685C47.4523 44.1685 47.5373 44.164 47.5999 44.1551C47.6714 44.1372 47.7341 44.1148 47.7877 44.088C47.8504 44.0612 47.913 44.0343 47.9756 44.0075C48.0382 43.9717 48.1143 43.9359 48.2037 43.9001C48.4363 43.8107 48.6332 43.6899 48.7942 43.5378C48.9642 43.3768 49.1028 43.1978 49.2102 43.001C49.3176 42.7953 49.3936 42.5761 49.4383 42.3435C49.492 42.1109 49.5188 41.8738 49.5188 41.6323C49.5188 41.4086 49.4875 41.1984 49.4249 41.0015C49.3623 40.7958 49.331 40.5811 49.331 40.3574C49.3846 40.3574 49.4338 40.4021 49.4786 40.4916C49.5323 40.5811 49.5949 40.684 49.6665 40.8003C49.738 40.9076 49.832 41.006 49.9483 41.0955C50.0646 41.1849 50.2211 41.2297 50.4179 41.2297C50.6953 41.2297 50.8876 41.1313 50.995 40.9344C51.1023 40.7287 51.156 40.5006 51.156 40.2501C51.156 40.0532 51.1068 39.8743 51.0084 39.7133C50.9189 39.5523 50.7982 39.4181 50.6461 39.3107C50.5029 39.1944 50.3374 39.1094 50.1496 39.0557C49.9617 38.9931 49.7783 38.9618 49.5994 38.9618C49.2505 38.9618 48.9418 39.0871 48.6734 39.3375H48.4185C48.2932 39.3375 48.1724 39.3197 48.0561 39.2839C47.9398 39.2391 47.8235 39.1944 47.7072 39.1497C47.5999 39.1049 47.488 39.0647 47.3717 39.0289C47.2554 38.9842 47.1391 38.9618 47.0228 38.9618C46.996 38.9618 46.9557 38.9707 46.9021 38.9886C46.8484 38.9976 46.7947 39.011 46.741 39.0289C46.6874 39.0468 46.6337 39.0647 46.58 39.0826C46.5353 39.1005 46.4995 39.1139 46.4727 39.1228C45.9627 39.3465 45.5601 39.6686 45.2649 40.089C44.9786 40.5095 44.8355 41.0015 44.8355 41.5652C44.8355 41.7709 44.8623 41.9677 44.916 42.1556C44.9786 42.3435 45.0099 42.5403 45.0099 42.7461C45.0099 42.764 45.0099 42.7908 45.0099 42.8266C45.0099 42.8624 45.0055 42.8892 44.9965 42.9071C44.7818 43.1129 44.6029 43.332 44.4597 43.5646C44.3256 43.7883 44.2585 44.0522 44.2585 44.3564C44.2585 44.4548 44.2764 44.5532 44.3121 44.6516C44.3479 44.7411 44.3837 44.8305 44.4195 44.92C44.4642 45.0095 44.5045 45.0989 44.5403 45.1884C44.5761 45.2778 44.5939 45.3673 44.5939 45.4568L44.5805 45.5239C44.4284 45.6938 44.3121 45.8638 44.2316 46.0338C44.1511 46.2038 44.1108 46.414 44.1108 46.6645ZM45.2649 46.7316V46.5035C45.2649 46.2798 45.3365 46.1098 45.4796 45.9935C45.6317 45.8683 45.8106 45.7744 46.0164 45.7117C46.2311 45.6491 46.4548 45.6133 46.6874 45.6044C46.92 45.5865 47.1213 45.5775 47.2912 45.5775C47.4165 45.5775 47.6222 45.5865 47.9085 45.6044C48.2037 45.6223 48.499 45.667 48.7942 45.7386C49.0984 45.8012 49.3623 45.8951 49.5859 46.0204C49.8185 46.1456 49.9348 46.3156 49.9348 46.5303C49.9348 46.6645 49.8901 46.7808 49.8006 46.8792C49.7112 46.9776 49.6038 47.0626 49.4786 47.1342C49.3533 47.2058 49.2191 47.2639 49.076 47.3086C48.9418 47.3534 48.8255 47.3892 48.7271 47.416C48.4677 47.4339 48.1859 47.4473 47.8817 47.4562C47.5865 47.4652 47.2957 47.4697 47.0094 47.4697C46.6605 47.4697 46.3385 47.4115 46.0432 47.2952C45.757 47.1789 45.4975 46.991 45.2649 46.7316ZM45.7883 41.6188C45.7883 41.422 45.8285 41.2386 45.909 41.0686C45.9896 40.8987 46.0969 40.751 46.2311 40.6258C46.3653 40.5006 46.5174 40.4021 46.6874 40.3306C46.8663 40.259 47.0497 40.2232 47.2376 40.2232C47.6491 40.2232 47.9577 40.3619 48.1635 40.6392C48.3693 40.9076 48.4721 41.2431 48.4721 41.6457C48.4721 41.8425 48.4408 42.0304 48.3782 42.2093C48.3156 42.3882 48.2261 42.5448 48.1098 42.679C47.9935 42.8132 47.8504 42.9205 47.6804 43.001C47.5194 43.0815 47.336 43.1218 47.1302 43.1218C46.9423 43.1218 46.7634 43.0771 46.5934 42.9876C46.4324 42.8981 46.2893 42.7863 46.164 42.6521C46.0477 42.509 45.9538 42.348 45.8822 42.169C45.8196 41.9901 45.7883 41.8067 45.7883 41.6188Z" fill="black"/>
<path d="M62.8295 41.9409C62.6774 41.9409 62.5477 41.9901 62.4403 42.0885C62.3329 42.178 62.2793 42.3032 62.2793 42.4643V45.5641C62.2793 45.7252 62.3419 45.8638 62.4671 45.9801C62.5924 46.0875 62.7311 46.1412 62.8831 46.1412C63.0173 46.1412 63.1157 46.1098 63.1784 46.0472C63.241 45.9756 63.2902 45.9041 63.326 45.8325C63.3618 45.752 63.3976 45.6804 63.4333 45.6178C63.4781 45.5462 63.5452 45.5104 63.6346 45.5104C63.7688 45.5104 63.8941 45.5373 64.0104 45.591C64.1267 45.6446 64.2385 45.7073 64.3458 45.7788C64.4622 45.8415 64.5785 45.8996 64.6948 45.9533C64.8111 46.007 64.9318 46.0338 65.0571 46.0338H66.3722C66.5243 46.0338 66.654 45.9935 66.7613 45.913C66.8776 45.8236 66.9939 45.743 67.1102 45.6715C67.1192 45.6625 67.146 45.6491 67.1908 45.6312C67.2444 45.6044 67.3026 45.5775 67.3652 45.5507C67.4278 45.5149 67.4815 45.4836 67.5262 45.4568C67.5799 45.4299 67.6157 45.412 67.6336 45.4031C67.8215 45.2689 67.978 45.1079 68.1033 44.92C68.2285 44.7321 68.3269 44.5308 68.3985 44.3161C68.479 44.0925 68.5372 43.8643 68.5729 43.6317C68.6087 43.3991 68.6266 43.1755 68.6266 42.9608C68.6266 42.6834 68.5908 42.4374 68.5193 42.2227C68.4477 41.999 68.3448 41.7978 68.2106 41.6188C68.0854 41.4399 67.9333 41.2699 67.7544 41.1089C67.5844 40.9479 67.401 40.7868 67.2042 40.6258C67.1952 40.6169 67.1773 40.6079 67.1505 40.599C67.1326 40.59 67.1192 40.5811 67.1102 40.5721C66.8955 40.5184 66.6674 40.4692 66.4258 40.4245C66.1933 40.3708 65.9651 40.335 65.7415 40.3172C65.4552 40.2903 65.1644 40.268 64.8692 40.2501C64.5829 40.2322 64.3235 40.183 64.0909 40.1024C63.8583 40.0219 63.6704 39.8877 63.5273 39.6999C63.3841 39.512 63.3126 39.2302 63.3126 38.8544C63.3126 38.6576 63.3573 38.4787 63.4468 38.3177C63.5362 38.1477 63.6525 38.0001 63.7957 37.8748C63.9477 37.7496 64.1132 37.6512 64.2922 37.5796C64.48 37.508 64.6724 37.4723 64.8692 37.4723C65.1644 37.4723 65.4641 37.5349 65.7683 37.6601C66.0725 37.7854 66.3453 37.9375 66.5869 38.1164C66.7032 38.2058 66.7792 38.3445 66.815 38.5324C66.8597 38.7113 66.8955 38.8947 66.9224 39.0826C66.9582 39.2704 67.0118 39.436 67.0834 39.5791C67.1639 39.7222 67.3026 39.7938 67.4994 39.7938C67.6336 39.7938 67.7499 39.7401 67.8483 39.6328C67.9467 39.5254 67.9959 39.4046 67.9959 39.2704V36.8013C67.9959 36.6313 67.9467 36.4658 67.8483 36.3048C67.7588 36.1348 67.6246 36.0498 67.4457 36.0498C67.3473 36.0498 67.2623 36.0766 67.1908 36.1303C67.1192 36.184 67.061 36.2511 67.0163 36.3316C66.9716 36.4121 66.9358 36.5016 66.9089 36.6C66.8821 36.6895 66.8597 36.7744 66.8419 36.855H66.7882C66.6808 36.855 66.5511 36.8058 66.399 36.7074C66.2559 36.6 66.1396 36.524 66.0501 36.4792C66.0054 36.4613 65.9293 36.4345 65.822 36.3987C65.7146 36.354 65.5983 36.3092 65.4731 36.2645C65.3568 36.2198 65.2405 36.1795 65.1242 36.1437C65.0168 36.108 64.9408 36.0811 64.896 36.0632H64.7753C64.6232 36.0632 64.4487 36.099 64.2519 36.1706C64.064 36.2332 63.8717 36.3182 63.6749 36.4255C63.487 36.524 63.3081 36.6358 63.1381 36.761C62.9771 36.8863 62.8474 37.0026 62.7489 37.1099C62.6505 37.2889 62.5655 37.4499 62.494 37.593C62.4224 37.7362 62.3643 37.8793 62.3195 38.0224C62.2748 38.1656 62.239 38.3132 62.2122 38.4653C62.1853 38.6174 62.1719 38.7874 62.1719 38.9752C62.1719 39.3778 62.248 39.7267 62.4 40.0219C62.5611 40.3172 62.7668 40.5721 63.0173 40.7868C63.2768 40.9926 63.572 41.1581 63.903 41.2833C64.243 41.3997 64.5919 41.4802 64.9497 41.5249C65.1734 41.5517 65.3881 41.5696 65.5938 41.5786C65.8086 41.5786 66.0098 41.5965 66.1977 41.6323C66.3945 41.6591 66.5779 41.7217 66.7479 41.8201C66.9179 41.9096 67.07 42.0572 67.2042 42.263C67.231 42.2987 67.2623 42.3569 67.2981 42.4374C67.3428 42.509 67.3652 42.5537 67.3652 42.5716V43.511C67.3205 43.5915 67.2802 43.6809 67.2444 43.7793C67.2086 43.8778 67.1639 43.9717 67.1102 44.0612C67.0655 44.1506 67.0074 44.2356 66.9358 44.3161C66.8732 44.3877 66.7882 44.4369 66.6808 44.4637C66.5556 44.4995 66.4348 44.5264 66.3185 44.5442C66.2111 44.5532 66.1083 44.5935 66.0098 44.665H65.0034C64.9408 44.6292 64.8916 44.6069 64.8558 44.5979C64.82 44.58 64.7797 44.5666 64.735 44.5577C64.6992 44.5487 64.659 44.5398 64.6142 44.5308C64.5695 44.5129 64.5069 44.4906 64.4264 44.4637C64.2206 44.3832 64.0372 44.2535 63.8762 44.0746C63.7241 43.8867 63.6123 43.6854 63.5407 43.4707C63.5049 43.3455 63.4825 43.1978 63.4736 43.0279C63.4646 42.8489 63.4423 42.679 63.4065 42.5179C63.3707 42.3569 63.3126 42.2227 63.232 42.1153C63.1515 41.999 63.0173 41.9409 62.8295 41.9409Z" fill="black"/>
<path d="M70.9338 43.8867C70.9338 44.3072 71.0143 44.6784 71.1754 45.0005C71.3453 45.3136 71.6137 45.5775 71.9805 45.7922C72.0521 45.837 72.1237 45.8862 72.1952 45.9399C72.2668 45.9846 72.3518 46.007 72.4502 46.007H73.6579C73.81 46.007 73.9576 45.9801 74.1008 45.9264C74.2439 45.8638 74.3826 45.7922 74.5168 45.7117C74.651 45.6223 74.7807 45.5328 74.9059 45.4433C75.0401 45.3539 75.1699 45.2778 75.2951 45.2152H75.3622C75.4248 45.2152 75.4785 45.2376 75.5232 45.2823C75.5769 45.327 75.6216 45.3807 75.6574 45.4433C75.7021 45.497 75.7424 45.5552 75.7782 45.6178C75.8229 45.6715 75.8721 45.7117 75.9258 45.7386C76.0779 45.837 76.2166 45.9085 76.3418 45.9533C76.467 45.9891 76.6147 46.007 76.7846 46.007C76.9994 46.007 77.1872 45.9578 77.3483 45.8593C77.5182 45.7609 77.6569 45.6357 77.7643 45.4836C77.8806 45.3226 77.97 45.1436 78.0326 44.9468C78.0953 44.75 78.1266 44.5532 78.1266 44.3564C78.1266 44.2669 78.1176 44.1775 78.0997 44.088C78.0818 43.9896 78.0505 43.9001 78.0058 43.8196C77.9611 43.7391 77.9029 43.672 77.8314 43.6183C77.7598 43.5646 77.6748 43.5378 77.5764 43.5378C77.3885 43.5378 77.2633 43.6004 77.2006 43.7257C77.147 43.8509 77.1067 43.9941 77.0799 44.1551C77.053 44.3072 77.0217 44.4458 76.9859 44.5711C76.9501 44.6963 76.8607 44.759 76.7175 44.759C76.5028 44.759 76.3955 44.6337 76.3955 44.3832V42.1153C76.4402 42.008 76.4581 41.8872 76.4492 41.753C76.4492 41.6099 76.4492 41.4846 76.4492 41.3773V40.9613C76.4492 40.9344 76.4402 40.8897 76.4223 40.8271C76.4134 40.7555 76.4 40.684 76.3821 40.6124C76.3642 40.5319 76.3463 40.4558 76.3284 40.3843C76.3105 40.3127 76.2971 40.2635 76.2881 40.2366C76.2613 40.1293 76.1897 39.9996 76.0734 39.8475C75.9661 39.6954 75.8363 39.5523 75.6843 39.4181C75.5411 39.2839 75.389 39.1676 75.228 39.0692C75.0759 38.9707 74.9417 38.9215 74.8254 38.9215H72.7723C72.6291 38.9215 72.5039 38.9663 72.3965 39.0557C72.2892 39.1363 72.1863 39.2123 72.0879 39.2839C71.9716 39.3644 71.8553 39.4538 71.739 39.5523C71.6227 39.6417 71.5198 39.7401 71.4303 39.8475C71.3409 39.9548 71.2693 40.0711 71.2156 40.1964C71.1619 40.3216 71.1351 40.4648 71.1351 40.6258C71.1351 40.9031 71.2246 41.1357 71.4035 41.3236C71.5914 41.5115 71.8284 41.6054 72.1147 41.6054C72.3026 41.6054 72.4502 41.5696 72.5575 41.4981C72.6739 41.4175 72.7588 41.3236 72.8125 41.2163C72.8751 41.1 72.9199 40.9747 72.9467 40.8405C72.9735 40.7063 72.9959 40.5855 73.0138 40.4782C73.0406 40.3619 73.0675 40.268 73.0943 40.1964C73.1212 40.1159 73.1704 40.0756 73.2419 40.0756H74.5033C74.5123 40.0756 74.5704 40.1024 74.6778 40.1561C74.7852 40.2098 74.8657 40.2501 74.9193 40.2769C75.0625 40.3574 75.1609 40.4648 75.2146 40.599C75.2683 40.7332 75.2951 40.8763 75.2951 41.0284C75.2951 41.2431 75.1877 41.3862 74.973 41.4578C74.7583 41.5294 74.4899 41.5786 74.1679 41.6054C73.8458 41.6323 73.4924 41.6636 73.1077 41.6993C72.732 41.7262 72.3831 41.8112 72.061 41.9543C71.739 42.0885 71.4706 42.3077 71.2559 42.6119C71.0412 42.9071 70.9338 43.332 70.9338 43.8867ZM71.9805 43.8733C71.9805 43.7749 72.0118 43.6586 72.0745 43.5244C72.146 43.3902 72.2042 43.2918 72.2489 43.2292C72.3384 43.095 72.4412 43.0234 72.5575 43.0144C72.7812 42.9787 73.0004 42.9518 73.2151 42.9339C73.4388 42.916 73.6579 42.8892 73.8727 42.8534C73.8995 42.8534 73.9711 42.8445 74.0874 42.8266C74.2126 42.7997 74.3423 42.7774 74.4765 42.7595C74.6107 42.7326 74.736 42.7103 74.8523 42.6924C74.9775 42.6655 75.0535 42.6521 75.0804 42.6521L75.1072 42.6387C75.1162 42.6387 75.1206 42.6432 75.1206 42.6521C75.1296 42.6521 75.1341 42.6521 75.1341 42.6521C75.143 42.6521 75.1609 42.6611 75.1877 42.679C75.2146 42.6879 75.2325 42.6924 75.2414 42.6924V42.8534C75.2414 43.2381 75.1833 43.5512 75.067 43.7928C74.9507 44.0343 74.727 44.2669 74.396 44.4906C74.3781 44.4995 74.3334 44.5219 74.2618 44.5577C74.1992 44.5935 74.1589 44.6203 74.141 44.6382C74.1052 44.6561 74.0605 44.6784 74.0068 44.7053C73.9621 44.7321 73.9353 44.7455 73.9263 44.7455H72.5575C72.4681 44.7455 72.3876 44.7142 72.316 44.6516C72.2444 44.589 72.1818 44.5129 72.1281 44.4235C72.0834 44.3251 72.0476 44.2267 72.0208 44.1283C71.9939 44.0298 71.9805 43.9449 71.9805 43.8733Z" fill="black"/>
<path d="M81.3152 43.2828C81.3152 43.6049 81.3555 43.9314 81.436 44.2624C81.5255 44.5845 81.6552 44.8797 81.8252 45.1481C82.0041 45.4076 82.2278 45.6223 82.4961 45.7922C82.7645 45.9622 83.0821 46.0472 83.4489 46.0472C83.6726 46.0472 83.8783 46.0114 84.0662 45.9399C84.263 45.8683 84.442 45.7744 84.603 45.6581C84.773 45.5328 84.9295 45.3986 85.0727 45.2555C85.2247 45.1034 85.3768 44.9468 85.5289 44.7858H85.5826V45.3628C85.5826 45.497 85.6407 45.6044 85.757 45.6849C85.8823 45.7654 86.0254 45.828 86.1865 45.8728C86.3475 45.9086 86.5041 45.9309 86.6561 45.9399C86.8172 45.9488 86.9335 45.9533 87.005 45.9533C87.1303 45.9533 87.2555 45.9488 87.3808 45.9399C87.506 45.9309 87.6179 45.9086 87.7163 45.8728C87.8236 45.828 87.9086 45.7609 87.9712 45.6715C88.0339 45.582 88.0652 45.4568 88.0652 45.2957C88.0652 45.1168 88.0249 44.9826 87.9444 44.8932C87.8639 44.7947 87.7565 44.7232 87.6223 44.6784C87.4971 44.6248 87.3584 44.5935 87.2063 44.5845C87.0632 44.5756 86.9245 44.5711 86.7903 44.5711L86.683 44.4637L86.7098 41.9409V41.6859L86.7367 40.2635C86.7098 40.174 86.6964 40.0532 86.6964 39.9012C86.6964 39.7491 86.683 39.6059 86.6561 39.4717C86.6293 39.3286 86.5801 39.2078 86.5085 39.1094C86.437 39.0021 86.3207 38.9484 86.1596 38.9484H84.9519C84.7819 38.9484 84.6477 38.9931 84.5493 39.0826C84.4598 39.172 84.4151 39.2928 84.4151 39.4449C84.4151 39.6149 84.4733 39.7446 84.5896 39.8341C84.7148 39.9146 84.849 39.9727 84.9921 40.0085C85.1442 40.0443 85.2784 40.0711 85.3947 40.089C85.52 40.098 85.5826 40.1203 85.5826 40.1561V42.1019C85.5826 42.3345 85.5379 42.5671 85.4484 42.7997C85.3589 43.0234 85.2471 43.2381 85.1129 43.4439C84.9787 43.6496 84.8266 43.8464 84.6567 44.0343C84.4867 44.2132 84.3212 44.3743 84.1601 44.5174C84.0707 44.5979 83.9589 44.6471 83.8247 44.665C83.6905 44.6829 83.5697 44.6919 83.4623 44.6919C83.2029 44.6919 83.015 44.6158 82.8987 44.4637C82.7914 44.3116 82.7198 44.1193 82.684 43.8867C82.684 43.7972 82.6751 43.6407 82.6572 43.417C82.6482 43.1844 82.6393 42.9384 82.6303 42.679C82.6214 42.4195 82.6124 42.178 82.6035 41.9543C82.5946 41.7217 82.5901 41.5607 82.5901 41.4712C82.5901 41.4533 82.5856 41.3818 82.5767 41.2565C82.5767 41.1223 82.5767 41.0239 82.5767 40.9613C82.5767 40.7734 82.5856 40.59 82.6035 40.4111C82.6303 40.2322 82.6438 40.0488 82.6438 39.8609C82.6438 39.7714 82.6348 39.673 82.6169 39.5657C82.608 39.4583 82.5811 39.3599 82.5364 39.2704C82.5006 39.172 82.4425 39.096 82.3619 39.0423C82.2904 38.9797 82.1875 38.9484 82.0533 38.9484H80.9529C80.7919 38.9484 80.6622 39.0021 80.5638 39.1094C80.4743 39.2168 80.4296 39.3465 80.4296 39.4986C80.4296 39.6596 80.4653 39.7759 80.5369 39.8475C80.6085 39.919 80.698 39.9727 80.8053 40.0085C80.9127 40.0354 81.0245 40.0622 81.1408 40.089C81.266 40.1069 81.3779 40.1472 81.4763 40.2098C81.4763 40.2366 81.4763 40.2814 81.4763 40.344C81.4763 40.3977 81.4763 40.4603 81.4763 40.5319C81.4852 40.5945 81.4897 40.6571 81.4897 40.7197C81.4897 40.7734 81.4897 40.8137 81.4897 40.8405C81.4897 41.252 81.4584 41.6591 81.3958 42.0617C81.3421 42.4643 81.3152 42.8713 81.3152 43.2828Z" fill="black"/>
<path d="M90.3578 45.2823C90.3578 45.4791 90.3936 45.6223 90.4651 45.7117C90.5367 45.8012 90.6306 45.8638 90.7469 45.8996C90.8722 45.9354 91.0108 45.9578 91.1629 45.9667C91.315 45.9667 91.4671 45.9756 91.6192 45.9935C91.6371 45.9935 91.6818 46.0025 91.7534 46.0204C91.825 46.0383 91.8697 46.0472 91.8876 46.0472H92.988C93.1669 46.0293 93.3235 45.9756 93.4576 45.8862C93.6008 45.7878 93.6724 45.6446 93.6724 45.4568C93.6724 45.2242 93.6232 45.0631 93.5247 44.9737C93.4353 44.8842 93.3235 44.8216 93.1893 44.7858C93.064 44.75 92.9388 44.7276 92.8135 44.7187C92.6972 44.7008 92.6122 44.6516 92.5585 44.5711V44.3698C92.5585 44.2714 92.5585 44.1909 92.5585 44.1283C92.5675 44.0656 92.5943 43.9896 92.6391 43.9001V42.3703C92.6391 42.3703 92.6614 42.3301 92.7062 42.2495C92.7598 42.169 92.8001 42.1064 92.8269 42.0617C92.8359 42.0438 92.8538 42.0169 92.8806 41.9812C92.9075 41.9364 92.9254 41.9096 92.9343 41.9006C93.0327 41.7307 93.1445 41.5517 93.2698 41.3639C93.404 41.167 93.5516 40.9881 93.7126 40.8271C93.8736 40.6661 94.0481 40.5319 94.236 40.4245C94.4328 40.3172 94.643 40.2635 94.8667 40.2635C95.0009 40.2635 95.1306 40.2769 95.2558 40.3037C95.3811 40.3216 95.484 40.3977 95.5645 40.5319C95.5645 40.5587 95.5645 40.6079 95.5645 40.6795C95.5734 40.751 95.5779 40.8271 95.5779 40.9076C95.5869 40.9792 95.5913 41.0507 95.5913 41.1223C95.6003 41.1939 95.6047 41.2431 95.6047 41.2699C95.6137 41.2878 95.6226 41.3415 95.6316 41.431C95.6495 41.5115 95.6584 41.5607 95.6584 41.5786V41.6323C95.6584 41.6591 95.645 41.7128 95.6182 41.7933C95.6003 41.8738 95.5869 41.9275 95.5779 41.9543V43.9941L95.4571 44.5174L95.4035 44.5711C95.1172 44.589 94.8756 44.6471 94.6788 44.7455C94.4909 44.835 94.397 45.0497 94.397 45.3897C94.397 45.6759 94.5401 45.8593 94.8264 45.9399C94.898 45.9399 95.0232 45.9443 95.2022 45.9533C95.3811 45.9622 95.569 45.9712 95.7658 45.9801C95.9715 45.9801 96.1639 45.9846 96.3428 45.9935C96.5217 45.9935 96.647 45.9935 96.7186 45.9935H96.9198C97.1346 45.9935 97.309 45.9578 97.4432 45.8862C97.5863 45.8057 97.6579 45.6491 97.6579 45.4165C97.6579 45.1302 97.5595 44.9289 97.3627 44.8126C97.1748 44.6963 96.9601 44.6158 96.7186 44.5711L96.6649 44.5174C96.6649 44.5174 96.6604 44.495 96.6515 44.4503C96.6515 44.3966 96.6515 44.3564 96.6515 44.3295C96.6515 44.2311 96.6515 44.1417 96.6515 44.0612C96.6604 43.9806 96.6828 43.8912 96.7186 43.7928V40.4782C96.7186 40.2724 96.6693 40.0711 96.5709 39.8743C96.4725 39.6775 96.3428 39.503 96.1818 39.351C96.0297 39.1989 95.8508 39.0781 95.645 38.9886C95.4482 38.8902 95.2514 38.841 95.0546 38.841C94.7325 38.841 94.4283 38.9305 94.142 39.1094C93.8647 39.2794 93.6008 39.4538 93.3503 39.6328C93.2966 39.6686 93.2429 39.7222 93.1893 39.7938C93.1356 39.8654 93.0819 39.9369 93.0282 40.0085C92.9746 40.0801 92.9209 40.1427 92.8672 40.1964C92.8225 40.2501 92.7733 40.2769 92.7196 40.2769C92.7196 40.2769 92.7106 40.2769 92.6927 40.2769C92.6838 40.2769 92.6749 40.2724 92.6659 40.2635C92.648 40.0309 92.6212 39.8385 92.5854 39.6864C92.5496 39.5344 92.487 39.4136 92.3975 39.3241C92.3081 39.2257 92.1828 39.1497 92.0218 39.096C91.8697 39.0423 91.6639 38.9976 91.4045 38.9618C91.4045 38.9529 91.3732 38.9484 91.3106 38.9484C91.2569 38.9484 91.2166 38.9484 91.1898 38.9484C90.993 38.9484 90.8096 38.9931 90.6396 39.0826C90.4786 39.1631 90.398 39.3197 90.398 39.5523C90.398 39.767 90.4517 39.928 90.5591 40.0354C90.6754 40.1338 90.7961 40.2098 90.9214 40.2635C91.0556 40.3172 91.1764 40.3619 91.2837 40.3977C91.4 40.4245 91.4582 40.4692 91.4582 40.5319V43.6317C91.4313 43.7659 91.409 43.918 91.3911 44.088C91.3821 44.249 91.3687 44.3922 91.3508 44.5174L91.2971 44.5711C91.0287 44.589 90.8051 44.6382 90.6262 44.7187C90.4472 44.7903 90.3578 44.9781 90.3578 45.2823Z" fill="black"/>
<path d="M99.9715 43.8867C99.9715 44.3072 100.052 44.6784 100.213 45.0005C100.383 45.3136 100.651 45.5775 101.018 45.7922C101.09 45.837 101.161 45.8862 101.233 45.9399C101.304 45.9846 101.389 46.007 101.488 46.007H102.696C102.848 46.007 102.995 45.9801 103.138 45.9264C103.282 45.8638 103.42 45.7922 103.554 45.7117C103.689 45.6223 103.818 45.5328 103.944 45.4433C104.078 45.3539 104.208 45.2778 104.333 45.2152H104.4C104.462 45.2152 104.516 45.2376 104.561 45.2823C104.615 45.327 104.659 45.3807 104.695 45.4433C104.74 45.497 104.78 45.5552 104.816 45.6178C104.861 45.6715 104.91 45.7117 104.963 45.7386C105.116 45.837 105.254 45.9085 105.379 45.9533C105.505 45.9891 105.652 46.007 105.822 46.007C106.037 46.007 106.225 45.9578 106.386 45.8593C106.556 45.7609 106.695 45.6357 106.802 45.4836C106.918 45.3226 107.008 45.1436 107.07 44.9468C107.133 44.75 107.164 44.5532 107.164 44.3564C107.164 44.2669 107.155 44.1775 107.137 44.088C107.12 43.9896 107.088 43.9001 107.043 43.8196C106.999 43.7391 106.941 43.672 106.869 43.6183C106.797 43.5646 106.712 43.5378 106.614 43.5378C106.426 43.5378 106.301 43.6004 106.238 43.7257C106.185 43.8509 106.144 43.9941 106.118 44.1551C106.091 44.3072 106.059 44.4458 106.024 44.5711C105.988 44.6963 105.898 44.759 105.755 44.759C105.541 44.759 105.433 44.6337 105.433 44.3832V42.1153C105.478 42.008 105.496 41.8872 105.487 41.753C105.487 41.6099 105.487 41.4846 105.487 41.3773V40.9613C105.487 40.9344 105.478 40.8897 105.46 40.8271C105.451 40.7555 105.438 40.684 105.42 40.6124C105.402 40.5319 105.384 40.4558 105.366 40.3843C105.348 40.3127 105.335 40.2635 105.326 40.2366C105.299 40.1293 105.227 39.9996 105.111 39.8475C105.004 39.6954 104.874 39.5523 104.722 39.4181C104.579 39.2839 104.427 39.1676 104.266 39.0692C104.114 38.9707 103.979 38.9215 103.863 38.9215H101.81C101.667 38.9215 101.542 38.9663 101.434 39.0557C101.327 39.1363 101.224 39.2123 101.126 39.2839C101.009 39.3644 100.893 39.4538 100.777 39.5523C100.66 39.6417 100.557 39.7401 100.468 39.8475C100.379 39.9548 100.307 40.0711 100.253 40.1964C100.2 40.3216 100.173 40.4648 100.173 40.6258C100.173 40.9031 100.262 41.1357 100.441 41.3236C100.629 41.5115 100.866 41.6054 101.152 41.6054C101.34 41.6054 101.488 41.5696 101.595 41.4981C101.712 41.4175 101.797 41.3236 101.85 41.2163C101.913 41.1 101.958 40.9747 101.984 40.8405C102.011 40.7063 102.034 40.5855 102.051 40.4782C102.078 40.3619 102.105 40.268 102.132 40.1964C102.159 40.1159 102.208 40.0756 102.28 40.0756H103.541C103.55 40.0756 103.608 40.1024 103.715 40.1561C103.823 40.2098 103.903 40.2501 103.957 40.2769C104.1 40.3574 104.199 40.4648 104.252 40.599C104.306 40.7332 104.333 40.8763 104.333 41.0284C104.333 41.2431 104.225 41.3862 104.011 41.4578C103.796 41.5294 103.528 41.5786 103.206 41.6054C102.883 41.6323 102.53 41.6636 102.145 41.6993C101.77 41.7262 101.421 41.8112 101.099 41.9543C100.777 42.0885 100.508 42.3077 100.294 42.6119C100.079 42.9071 99.9715 43.332 99.9715 43.8867ZM101.018 43.8733C101.018 43.7749 101.049 43.6586 101.112 43.5244C101.184 43.3902 101.242 43.2918 101.287 43.2292C101.376 43.095 101.479 43.0234 101.595 43.0144C101.819 42.9787 102.038 42.9518 102.253 42.9339C102.476 42.916 102.696 42.8892 102.91 42.8534C102.937 42.8534 103.009 42.8445 103.125 42.8266C103.25 42.7997 103.38 42.7774 103.514 42.7595C103.648 42.7326 103.774 42.7103 103.89 42.6924C104.015 42.6655 104.091 42.6521 104.118 42.6521L104.145 42.6387C104.154 42.6387 104.158 42.6432 104.158 42.6521C104.167 42.6521 104.172 42.6521 104.172 42.6521C104.181 42.6521 104.199 42.6611 104.225 42.679C104.252 42.6879 104.27 42.6924 104.279 42.6924V42.8534C104.279 43.2381 104.221 43.5512 104.105 43.7928C103.988 44.0343 103.765 44.2669 103.434 44.4906C103.416 44.4995 103.371 44.5219 103.299 44.5577C103.237 44.5935 103.197 44.6203 103.179 44.6382C103.143 44.6561 103.098 44.6784 103.045 44.7053C103 44.7321 102.973 44.7455 102.964 44.7455H101.595C101.506 44.7455 101.425 44.7142 101.354 44.6516C101.282 44.589 101.219 44.5129 101.166 44.4235C101.121 44.3251 101.085 44.2267 101.058 44.1283C101.032 44.0298 101.018 43.9449 101.018 43.8733Z" fill="black"/>
<mask id="path-2-inside-1_42_385" fill="white">
<path d="M94.1556 32.5511C92.2645 23.4336 87.2894 15.2464 80.068 9.36802C72.8466 3.48968 63.8201 0.279409 54.5087 0.277833C45.1972 0.276256 36.1696 3.48347 28.9462 9.35937C21.7228 15.2353 16.7449 23.4209 14.8509 32.5377L17.1479 33.0149C18.9323 24.4263 23.6218 16.7149 30.4267 11.1794C37.2316 5.64387 45.7362 2.62246 54.5083 2.62394C63.2803 2.62543 71.7839 5.64972 78.5869 11.1875C85.39 16.7253 90.0769 24.4383 91.8583 33.0275L94.1556 32.5511Z"/>
</mask>
<path d="M94.1556 32.5511C92.2645 23.4336 87.2894 15.2464 80.068 9.36802C72.8466 3.48968 63.8201 0.279409 54.5087 0.277833C45.1972 0.276256 36.1696 3.48347 28.9462 9.35937C21.7228 15.2353 16.7449 23.4209 14.8509 32.5377L17.1479 33.0149C18.9323 24.4263 23.6218 16.7149 30.4267 11.1794C37.2316 5.64387 45.7362 2.62246 54.5083 2.62394C63.2803 2.62543 71.7839 5.64972 78.5869 11.1875C85.39 16.7253 90.0769 24.4383 91.8583 33.0275L94.1556 32.5511Z" stroke="black" stroke-width="12" mask="url(#path-2-inside-1_42_385)"/>
<mask id="path-3-inside-2_42_385" fill="white">
<path d="M14.8432 48.9764C16.7288 58.0949 21.6991 66.2852 28.917 72.1678C36.1349 78.0504 45.1595 81.266 54.4709 81.2731C63.7824 81.2802 72.8119 78.0784 80.0388 72.2068C87.2656 66.3352 92.2484 58.1525 94.1479 49.0368L91.8516 48.5584C90.0622 57.1461 85.368 64.8548 78.5597 70.3863C71.7514 75.9178 63.2449 78.9343 54.4727 78.9276C45.7006 78.9209 37.1987 75.8915 30.3988 70.3496C23.599 64.8077 18.9166 57.0918 17.1402 48.5014L14.8432 48.9764Z"/>
</mask>
<path d="M14.8432 48.9764C16.7288 58.0949 21.6991 66.2852 28.917 72.1678C36.1349 78.0504 45.1595 81.266 54.4709 81.2731C63.7824 81.2802 72.8119 78.0784 80.0388 72.2068C87.2656 66.3352 92.2484 58.1525 94.1479 49.0368L91.8516 48.5584C90.0622 57.1461 85.368 64.8548 78.5597 70.3863C71.7514 75.9178 63.2449 78.9343 54.4727 78.9276C45.7006 78.9209 37.1987 75.8915 30.3988 70.3496C23.599 64.8077 18.9166 57.0918 17.1402 48.5014L14.8432 48.9764Z" stroke="black" stroke-width="12" mask="url(#path-3-inside-2_42_385)"/>
<path d="M49.4028 55.7478C49.4028 55.7478 48.8198 57.0521 48.8523 57.9187C48.8839 58.762 49.4966 59.1423 49.5282 59.9856C49.5607 60.8522 48.9777 62.1565 48.9777 62.1565" stroke="black"/>
<path d="M60.1481 55.9875C60.1481 55.9875 59.5651 57.2919 59.5976 58.1584C59.6292 59.0018 60.242 59.3821 60.2736 60.2254C60.306 61.0919 59.7231 62.3963 59.7231 62.3963" stroke="black"/>
<path d="M54.8034 53.5915C54.8034 53.5915 54.2281 55.1545 54.2657 56.1957C54.3024 57.2091 54.9175 57.6703 54.9541 58.6836C54.9918 59.7249 54.4164 61.2878 54.4164 61.2878" stroke="black"/>
<path d="M54.3449 8.42529V24.9598M54.3449 11.7194C53.0085 13.8268 51.568 14.8619 50.4939 15.1441M54.3449 8.72144C53.0085 10.8288 52.3284 11.5298 51.2543 11.812M54.3386 15.1783C55.6749 17.2857 57.4367 18.4503 58.5108 18.7325M54.3386 11.7294C55.6749 13.8367 57.1092 14.8619 58.1833 15.1441M54.3386 8.73624C55.6749 10.8436 56.355 11.5446 57.4291 11.8268M54.3449 15.1783C53.0085 17.2857 51.2467 18.4503 50.1726 18.7325" stroke="black"/>
<path d="M43.3726 66.7178L43.5795 66.2626L43.339 66.1533L43.1131 66.2904L43.3726 66.7178ZM46.0085 67.916L46.3134 67.5197L46.2678 67.4846L46.2154 67.4608L46.0085 67.916ZM46.3543 65.8124L46.2721 65.3192L46.1234 65.344L46.0132 65.4468L46.3543 65.8124ZM49.2299 65.3331L49.6196 65.0198L49.4363 64.7918L49.1477 64.8399L49.2299 65.3331ZM54.1423 64.0151L54.3996 63.5864L54.1313 63.4254L53.8692 63.5963L54.1423 64.0151ZM51.3866 65.8124L51.1134 65.3936L51.0399 65.4416L50.987 65.5118L51.3866 65.8124ZM57.1377 66.6511L56.7414 66.9559L57.0263 67.3263L57.4151 67.0671L57.1377 66.6511ZM58.935 65.4529L59.0244 64.961L58.8257 64.9249L58.6576 65.0369L58.935 65.4529ZM61.5709 65.9322L61.8658 65.5284L61.7732 65.4608L61.6603 65.4403L61.5709 65.9322ZM64.5173 67.2171V66.7171H64.3766L64.2566 66.7904L64.5173 67.2171ZM61.241 69.3472L60.9656 68.9298L60.8497 69.0063L60.7898 69.1316L61.241 69.3472ZM67.7935 67.2171L68.1946 66.9186L68.0447 66.7171H67.7935V67.2171ZM41.0552 68.1245L40.7957 67.6971L40.6411 67.791L40.5823 67.962L41.0552 68.1245ZM55.9396 65.0935L56.3359 64.7886L56.2781 64.7135L56.1968 64.6647L55.9396 65.0935ZM50.5302 66.9506L50.1405 67.2639L50.5433 67.7649L50.9297 67.2512L50.5302 66.9506ZM47.5661 69.1141L48.0592 69.1971L48.109 68.9009L47.871 68.7178L47.5661 69.1141ZM43.1657 67.173L45.8016 68.3712L46.2154 67.4608L43.5795 66.2626L43.1657 67.173ZM46.4365 66.3056L49.3121 65.8263L49.1477 64.8399L46.2721 65.3192L46.4365 66.3056ZM57.4151 67.0671L59.2123 65.8689L58.6576 65.0369L56.8604 66.2351L57.4151 67.0671ZM58.8455 65.9449L61.4815 66.4241L61.6603 65.4403L59.0244 64.961L58.8455 65.9449ZM61.276 66.336L63.5761 68.0157L64.1658 67.2081L61.8658 65.5284L61.276 66.336ZM64.2566 66.7904L63.6103 67.1852L64.1316 68.0386L64.7779 67.6438L64.2566 66.7904ZM63.5956 67.1946L60.9656 68.9298L61.5164 69.7645L64.1463 68.0292L63.5956 67.1946ZM60.7898 69.1316L60.4206 69.9045L61.3229 70.3356L61.6921 69.5627L60.7898 69.1316ZM64.5173 67.7171H67.7935V66.7171H64.5173V67.7171ZM67.3924 67.5157L69.0967 69.8055L69.8989 69.2084L68.1946 66.9186L67.3924 67.5157ZM44.8983 67.8553L46.6955 66.1779L46.0132 65.4468L44.2159 67.1243L44.8983 67.8553ZM40.85 70.259L41.528 68.2871L40.5823 67.962L39.9044 69.9338L40.85 70.259ZM41.3146 68.552L43.632 67.1452L43.1131 66.2904L40.7957 67.6971L41.3146 68.552ZM51.6597 66.2312L54.4155 64.4339L53.8692 63.5963L51.1134 65.3936L51.6597 66.2312ZM53.8851 64.4439L55.6823 65.5222L56.1968 64.6647L54.3996 63.5864L53.8851 64.4439ZM55.5433 65.3983L56.7414 66.9559L57.534 66.3462L56.3359 64.7886L55.5433 65.3983ZM50.987 65.5118L50.1306 66.65L50.9297 67.2512L51.7861 66.113L50.987 65.5118ZM48.8402 65.6464L50.1405 67.2639L50.9199 66.6373L49.6196 65.0198L48.8402 65.6464ZM45.7037 68.3123L47.2613 69.5104L47.871 68.7178L46.3134 67.5197L45.7037 68.3123ZM47.0731 69.0312L46.8942 70.0945L47.8803 70.2604L48.0592 69.1971L47.0731 69.0312Z" fill="black"/>
</svg>
